<svg xmlns="http://www.w3.org/2000/svg" xmlns:xlink="http://www.w3.org/1999/xlink" viewBox="0 0 1068.83 812.55"><defs><style>.cls-1{isolation:isolate;}.cls-2{fill:url(#radial-gradient);}.cls-3{fill:url(#radial-gradient-2);}.cls-4{fill:url(#radial-gradient-3);}.cls-5{fill:url(#radial-gradient-4);}.cls-6{fill:url(#radial-gradient-5);}.cls-100,.cls-101,.cls-102,.cls-103,.cls-104,.cls-105,.cls-106,.cls-107,.cls-108,.cls-109,.cls-110,.cls-111,.cls-112,.cls-113,.cls-114,.cls-115,.cls-116,.cls-117,.cls-118,.cls-119,.cls-120,.cls-121,.cls-122,.cls-123,.cls-124,.cls-125,.cls-126,.cls-132,.cls-162,.cls-163,.cls-164,.cls-165,.cls-166,.cls-167,.cls-168,.cls-169,.cls-170,.cls-171,.cls-172,.cls-173,.cls-174,.cls-175,.cls-176,.cls-177,.cls-178,.cls-179,.cls-180,.cls-181,.cls-182,.cls-183,.cls-184,.cls-185,.cls-186,.cls-187,.cls-188,.cls-25,.cls-38,.cls-39,.cls-40,.cls-41,.cls-42,.cls-43,.cls-44,.cls-45,.cls-46,.cls-47,.cls-48,.cls-49,.cls-50,.cls-51,.cls-52,.cls-53,.cls-54,.cls-55,.cls-56,.cls-57,.cls-58,.cls-59,.cls-60,.cls-61,.cls-62,.cls-63,.cls-64,.cls-7,.cls-70{opacity:0.5;}.cls-7{fill:url(#radial-gradient-6);}.cls-126,.cls-133,.cls-188,.cls-64,.cls-71,.cls-8{mix-blend-mode:screen;}.cls-8{fill:url(#radial-gradient-7);}.cls-10,.cls-134,.cls-135,.cls-72,.cls-73,.cls-9{opacity:0.25;}.cls-10,.cls-100,.cls-101,.cls-102,.cls-103,.cls-104,.cls-105,.cls-106,.cls-107,.cls-108,.cls-109,.cls-11,.cls-110,.cls-111,.cls-112,.cls-113,.cls-114,.cls-115,.cls-116,.cls-117,.cls-118,.cls-119,.cls-12,.cls-120,.cls-121,.cls-122,.cls-123,.cls-124,.cls-125,.cls-13,.cls-134,.cls-135,.cls-136,.cls-137,.cls-138,.cls-139,.cls-14,.cls-140,.cls-141,.cls-142,.cls-143,.cls-144,.cls-145,.cls-146,.cls-147,.cls-148,.cls-149,.cls-15,.cls-150,.cls-151,.cls-152,.cls-153,.cls-154,.cls-155,.cls-156,.cls-157,.cls-158,.cls-159,.cls-16,.cls-160,.cls-161,.cls-162,.cls-163,.cls-164,.cls-165,.cls-166,.cls-167,.cls-168,.cls-169,.cls-17,.cls-170,.cls-171,.cls-172,.cls-173,.cls-174,.cls-175,.cls-176,.cls-177,.cls-178,.cls-179,.cls-18,.cls-180,.cls-181,.cls-182,.cls-183,.cls-184,.cls-185,.cls-186,.cls-187,.cls-19,.cls-20,.cls-21,.cls-22,.cls-23,.cls-24,.cls-25,.cls-26,.cls-27,.cls-28,.cls-29,.cls-30,.cls-31,.cls-32,.cls-33,.cls-34,.cls-35,.cls-36,.cls-37,.cls-38,.cls-39,.cls-40,.cls-41,.cls-42,.cls-43,.cls-44,.cls-45,.cls-46,.cls-47,.cls-48,.cls-49,.cls-50,.cls-51,.cls-52,.cls-53,.cls-54,.cls-55,.cls-56,.cls-57,.cls-58,.cls-59,.cls-60,.cls-61,.cls-62,.cls-63,.cls-72,.cls-73,.cls-74,.cls-75,.cls-76,.cls-77,.cls-78,.cls-79,.cls-80,.cls-81,.cls-82,.cls-83,.cls-84,.cls-85,.cls-86,.cls-87,.cls-88,.cls-89,.cls-9,.cls-90,.cls-91,.cls-92,.cls-93,.cls-94,.cls-95,.cls-96,.cls-97,.cls-98,.cls-99{mix-blend-mode:multiply;}.cls-9{fill:url(#radial-gradient-8);}.cls-10{fill:url(#radial-gradient-9);}.cls-11{fill:url(#radial-gradient-10);}.cls-12{fill:url(#radial-gradient-11);}.cls-13{fill:url(#radial-gradient-12);}.cls-14{fill:url(#radial-gradient-14);}.cls-15{fill:url(#radial-gradient-15);}.cls-16{fill:url(#radial-gradient-16);}.cls-17{fill:url(#radial-gradient-17);}.cls-18{fill:url(#radial-gradient-18);}.cls-19{fill:url(#radial-gradient-19);}.cls-20{fill:url(#radial-gradient-20);}.cls-21{fill:url(#radial-gradient-21);}.cls-22{fill:url(#radial-gradient-23);}.cls-23{fill:url(#radial-gradient-24);}.cls-24{fill:url(#radial-gradient-25);}.cls-26{fill:url(#radial-gradient-26);}.cls-27{fill:url(#radial-gradient-28);}.cls-28{fill:url(#radial-gradient-29);}.cls-29{fill:url(#radial-gradient-30);}.cls-30{fill:url(#radial-gradient-31);}.cls-31{fill:url(#radial-gradient-33);}.cls-32{fill:url(#radial-gradient-34);}.cls-33{fill:url(#radial-gradient-35);}.cls-34{fill:url(#radial-gradient-36);}.cls-35{fill:url(#radial-gradient-38);}.cls-36{fill:url(#radial-gradient-39);}.cls-37{fill:url(#radial-gradient-40);}.cls-38{fill:url(#radial-gradient-41);}.cls-39{fill:url(#radial-gradient-42);}.cls-40{fill:url(#radial-gradient-43);}.cls-41{fill:url(#radial-gradient-44);}.cls-42{fill:url(#radial-gradient-45);}.cls-43{fill:url(#radial-gradient-46);}.cls-44{fill:url(#radial-gradient-47);}.cls-45{fill:url(#radial-gradient-48);}.cls-46{fill:url(#radial-gradient-49);}.cls-47{fill:url(#radial-gradient-50);}.cls-48{fill:url(#radial-gradient-51);}.cls-49{fill:url(#radial-gradient-52);}.cls-50{fill:url(#radial-gradient-53);}.cls-51{fill:url(#radial-gradient-54);}.cls-52{fill:url(#radial-gradient-55);}.cls-53{fill:url(#radial-gradient-56);}.cls-54{fill:url(#radial-gradient-57);}.cls-55{fill:url(#radial-gradient-58);}.cls-56{fill:url(#radial-gradient-59);}.cls-57{fill:url(#radial-gradient-60);}.cls-58{fill:url(#radial-gradient-61);}.cls-59{fill:url(#radial-gradient-62);}.cls-60{fill:url(#radial-gradient-63);}.cls-61{fill:url(#radial-gradient-64);}.cls-62{fill:url(#radial-gradient-65);}.cls-63{fill:url(#radial-gradient-66);}.cls-64{fill:url(#radial-gradient-67);}.cls-65{fill:url(#radial-gradient-68);}.cls-66{fill:url(#radial-gradient-69);}.cls-67{fill:url(#radial-gradient-70);}.cls-68{fill:url(#radial-gradient-71);}.cls-69{fill:url(#radial-gradient-72);}.cls-70{fill:url(#radial-gradient-73);}.cls-71{fill:url(#radial-gradient-74);}.cls-72{fill:url(#radial-gradient-75);}.cls-73{fill:url(#radial-gradient-76);}.cls-74{fill:url(#radial-gradient-77);}.cls-75{fill:url(#radial-gradient-78);}.cls-76{fill:url(#radial-gradient-79);}.cls-77{fill:url(#radial-gradient-81);}.cls-78{fill:url(#radial-gradient-82);}.cls-79{fill:url(#radial-gradient-83);}.cls-80{fill:url(#radial-gradient-84);}.cls-81{fill:url(#radial-gradient-85);}.cls-82{fill:url(#radial-gradient-86);}.cls-83{fill:url(#radial-gradient-87);}.cls-84{fill:url(#radial-gradient-88);}.cls-85{fill:url(#radial-gradient-90);}.cls-86{fill:url(#radial-gradient-91);}.cls-87{fill:url(#radial-gradient-92);}.cls-88{fill:url(#radial-gradient-93);}.cls-89{fill:url(#radial-gradient-95);}.cls-90{fill:url(#radial-gradient-96);}.cls-91{fill:url(#radial-gradient-97);}.cls-92{fill:url(#radial-gradient-98);}.cls-93{fill:url(#radial-gradient-100);}.cls-94{fill:url(#radial-gradient-101);}.cls-95{fill:url(#radial-gradient-102);}.cls-96{fill:url(#radial-gradient-103);}.cls-97{fill:url(#radial-gradient-105);}.cls-98{fill:url(#radial-gradient-106);}.cls-99{fill:url(#radial-gradient-107);}.cls-100{fill:url(#radial-gradient-108);}.cls-101{fill:url(#radial-gradient-109);}.cls-102{fill:url(#radial-gradient-110);}.cls-103{fill:url(#radial-gradient-111);}.cls-104{fill:url(#radial-gradient-112);}.cls-105{fill:url(#radial-gradient-113);}.cls-106{fill:url(#radial-gradient-114);}.cls-107{fill:url(#radial-gradient-115);}.cls-108{fill:url(#radial-gradient-116);}.cls-109{fill:url(#radial-gradient-117);}.cls-110{fill:url(#radial-gradient-118);}.cls-111{fill:url(#radial-gradient-119);}.cls-112{fill:url(#radial-gradient-120);}.cls-113{fill:url(#radial-gradient-121);}.cls-114{fill:url(#radial-gradient-122);}.cls-115{fill:url(#radial-gradient-123);}.cls-116{fill:url(#radial-gradient-124);}.cls-117{fill:url(#radial-gradient-125);}.cls-118{fill:url(#radial-gradient-126);}.cls-119{fill:url(#radial-gradient-127);}.cls-120{fill:url(#radial-gradient-128);}.cls-121{fill:url(#radial-gradient-129);}.cls-122{fill:url(#radial-gradient-130);}.cls-123{fill:url(#radial-gradient-131);}.cls-124{fill:url(#radial-gradient-132);}.cls-125{fill:url(#radial-gradient-133);}.cls-126{fill:url(#radial-gradient-134);}.cls-127{fill:url(#radial-gradient-135);}.cls-128{fill:url(#radial-gradient-136);}.cls-129{fill:url(#radial-gradient-137);}.cls-130{fill:url(#radial-gradient-138);}.cls-131{fill:url(#radial-gradient-139);}.cls-132{fill:url(#radial-gradient-140);}.cls-133{fill:url(#radial-gradient-141);}.cls-134{fill:url(#radial-gradient-142);}.cls-135{fill:url(#radial-gradient-143);}.cls-136{fill:url(#radial-gradient-144);}.cls-137{fill:url(#radial-gradient-145);}.cls-138{fill:url(#radial-gradient-146);}.cls-139{fill:url(#radial-gradient-148);}.cls-140{fill:url(#radial-gradient-149);}.cls-141{fill:url(#radial-gradient-150);}.cls-142{fill:url(#radial-gradient-151);}.cls-143{fill:url(#radial-gradient-152);}.cls-144{fill:url(#radial-gradient-153);}.cls-145{fill:url(#radial-gradient-154);}.cls-146{fill:url(#radial-gradient-155);}.cls-147{fill:url(#radial-gradient-157);}.cls-148{fill:url(#radial-gradient-158);}.cls-149{fill:url(#radial-gradient-159);}.cls-150{fill:url(#radial-gradient-160);}.cls-151{fill:url(#radial-gradient-162);}.cls-152{fill:url(#radial-gradient-163);}.cls-153{fill:url(#radial-gradient-164);}.cls-154{fill:url(#radial-gradient-165);}.cls-155{fill:url(#radial-gradient-167);}.cls-156{fill:url(#radial-gradient-168);}.cls-157{fill:url(#radial-gradient-169);}.cls-158{fill:url(#radial-gradient-170);}.cls-159{fill:url(#radial-gradient-172);}.cls-160{fill:url(#radial-gradient-173);}.cls-161{fill:url(#radial-gradient-174);}.cls-162{fill:url(#radial-gradient-175);}.cls-163{fill:url(#radial-gradient-176);}.cls-164{fill:url(#radial-gradient-177);}.cls-165{fill:url(#radial-gradient-178);}.cls-166{fill:url(#radial-gradient-179);}.cls-167{fill:url(#radial-gradient-180);}.cls-168{fill:url(#radial-gradient-181);}.cls-169{fill:url(#radial-gradient-182);}.cls-170{fill:url(#radial-gradient-183);}.cls-171{fill:url(#radial-gradient-184);}.cls-172{fill:url(#radial-gradient-185);}.cls-173{fill:url(#radial-gradient-186);}.cls-174{fill:url(#radial-gradient-187);}.cls-175{fill:url(#radial-gradient-188);}.cls-176{fill:url(#radial-gradient-189);}.cls-177{fill:url(#radial-gradient-190);}.cls-178{fill:url(#radial-gradient-191);}.cls-179{fill:url(#radial-gradient-192);}.cls-180{fill:url(#radial-gradient-193);}.cls-181{fill:url(#radial-gradient-194);}.cls-182{fill:url(#radial-gradient-195);}.cls-183{fill:url(#radial-gradient-196);}.cls-184{fill:url(#radial-gradient-197);}.cls-185{fill:url(#radial-gradient-198);}.cls-186{fill:url(#radial-gradient-199);}.cls-187{fill:url(#radial-gradient-200);}.cls-188{fill:url(#radial-gradient-201);}</style><radialGradient id="radial-gradient" cx="204.91" cy="778.72" r="900.1" gradientTransform="matrix(1.14, 0.42, -0.34, 0.91, 99.23, -423.25)" gradientUnits="userSpaceOnUse"><stop offset="0.08" stop-color="#ffe132"/><stop offset="0.53" stop-color="#ed227e" stop-opacity="0.47"/><stop offset="1" stop-color="#f68521" stop-opacity="0"/></radialGradient><radialGradient id="radial-gradient-2" cx="259.1" cy="1095.71" r="840.75" gradientTransform="matrix(1.14, 0.42, -0.15, 0.4, -2.36, -146.72)" xlink:href="#radial-gradient"/><radialGradient id="radial-gradient-3" cx="192.5" cy="744.98" r="929.02" gradientTransform="translate(228.62 -392.23) rotate(20.21)" xlink:href="#radial-gradient"/><radialGradient id="radial-gradient-4" cx="180.81" cy="817.27" r="960.57" gradientTransform="translate(228.62 -392.23) rotate(20.21)" xlink:href="#radial-gradient"/><radialGradient id="radial-gradient-5" cx="198.1" cy="752.64" r="200.28" gradientTransform="translate(227.11 -390.02) rotate(20.13)" gradientUnits="userSpaceOnUse"><stop offset="0.08" stop-color="#ffe132"/><stop offset="1" stop-color="#f68521"/></radialGradient><radialGradient id="radial-gradient-6" cx="194.12" cy="743.24" r="223.93" gradientTransform="translate(815.91 -89.18) rotate(65.13)" xlink:href="#radial-gradient-5"/><radialGradient id="radial-gradient-7" cx="195.04" cy="740" r="166.33" xlink:href="#radial-gradient-5"/><radialGradient id="radial-gradient-8" cx="190.1" cy="762.49" r="187.92" xlink:href="#radial-gradient-5"/><radialGradient id="radial-gradient-9" cx="299.44" cy="1049.69" r="173.95" xlink:href="#radial-gradient-5"/><radialGradient id="radial-gradient-10" cx="260.97" cy="906.33" r="61.08" gradientTransform="matrix(0.77, 0.64, -0.64, 0.77, 496.18, -481.62)" xlink:href="#radial-gradient-5"/><radialGradient id="radial-gradient-11" cx="263.02" cy="907.14" r="59.08" gradientTransform="matrix(0.77, 0.64, -0.64, 0.77, 496.18, -481.62)" xlink:href="#radial-gradient-5"/><radialGradient id="radial-gradient-12" cx="401.47" cy="918.82" r="21.95" gradientTransform="matrix(1.04, 0.87, -0.64, 0.77, 323.32, -627.18)" xlink:href="#radial-gradient-5"/><radialGradient id="radial-gradient-14" cx="402.2" cy="919.11" r="21.23" gradientTransform="matrix(1.04, 0.87, -0.64, 0.77, 323.32, -627.18)" xlink:href="#radial-gradient-5"/><radialGradient id="radial-gradient-15" cx="914.1" cy="232.33" r="39.12" gradientTransform="matrix(-1.29, -0.42, 0.31, -0.95, 1285.81, 1119.68)" xlink:href="#radial-gradient-5"/><radialGradient id="radial-gradient-16" cx="915.41" cy="232.85" r="37.84" gradientTransform="matrix(-1.29, -0.42, 0.31, -0.95, 1285.81, 1119.68)" xlink:href="#radial-gradient-5"/><radialGradient id="radial-gradient-17" cx="276.11" cy="733.84" r="42.6" gradientTransform="matrix(1.35, 0.17, -0.12, 0.99, -157.38, -305.81)" xlink:href="#radial-gradient-5"/><radialGradient id="radial-gradient-18" cx="277.53" cy="734.4" r="41.21" gradientTransform="matrix(1.35, 0.17, -0.12, 0.99, -157.38, -305.81)" xlink:href="#radial-gradient-5"/><radialGradient id="radial-gradient-19" cx="353.01" cy="946.93" r="26.81" gradientTransform="translate(658.4 -491.47) rotate(51.51)" xlink:href="#radial-gradient-5"/><radialGradient id="radial-gradient-20" cx="353.91" cy="947.29" r="25.93" gradientTransform="translate(658.4 -491.47) rotate(51.51)" xlink:href="#radial-gradient-5"/><radialGradient id="radial-gradient-21" cx="176.88" cy="863.15" r="39.52" gradientTransform="translate(284.24 -422.05) rotate(24.99)" xlink:href="#radial-gradient-5"/><radialGradient id="radial-gradient-23" cx="178.2" cy="863.67" r="38.23" gradientTransform="translate(284.24 -422.05) rotate(24.99)" xlink:href="#radial-gradient-5"/><radialGradient id="radial-gradient-24" cx="961.39" cy="245.42" r="39.52" gradientTransform="translate(1052.71 1082.81) rotate(-158.45)" xlink:href="#radial-gradient-5"/><radialGradient id="radial-gradient-25" cx="962.71" cy="245.94" r="38.23" gradientTransform="translate(1052.71 1082.81) rotate(-158.45)" xlink:href="#radial-gradient-5"/><radialGradient id="radial-gradient-26" cx="841.22" cy="68.03" r="30.25" gradientTransform="translate(773.92 1179.68) rotate(-138.1)" xlink:href="#radial-gradient-5"/><radialGradient id="radial-gradient-28" cx="842.24" cy="68.43" r="29.26" gradientTransform="translate(773.92 1179.68) rotate(-138.1)" xlink:href="#radial-gradient-5"/><radialGradient id="radial-gradient-29" cx="862.31" cy="126.41" r="23.93" gradientTransform="translate(773.92 1179.68) rotate(-138.1)" xlink:href="#radial-gradient-5"/><radialGradient id="radial-gradient-30" cx="863.11" cy="126.72" r="23.15" gradientTransform="translate(773.92 1179.68) rotate(-138.1)" xlink:href="#radial-gradient-5"/><radialGradient id="radial-gradient-31" cx="1033.67" cy="739.31" r="55.85" gradientTransform="translate(1251.52 1165.4) rotate(180)" xlink:href="#radial-gradient-5"/><radialGradient id="radial-gradient-33" cx="1035.54" cy="740.05" r="54.03" gradientTransform="translate(1507.3 319.05) rotate(139.75)" xlink:href="#radial-gradient-5"/><radialGradient id="radial-gradient-34" cx="911.97" cy="919.18" r="23.94" gradientTransform="translate(1433.94 -17.91) rotate(117.02)" xlink:href="#radial-gradient-5"/><radialGradient id="radial-gradient-35" cx="912.77" cy="919.5" r="23.15" gradientTransform="translate(1433.94 -17.91) rotate(117.02)" xlink:href="#radial-gradient-5"/><radialGradient id="radial-gradient-36" cx="149.44" cy="343.15" r="23.93" gradientTransform="translate(-266.8 334.74) rotate(-37.83)" xlink:href="#radial-gradient-5"/><radialGradient id="radial-gradient-38" cx="150.24" cy="343.47" r="23.15" gradientTransform="translate(-266.8 334.74) rotate(-37.83)" xlink:href="#radial-gradient-5"/><radialGradient id="radial-gradient-39" cx="828.54" cy="96.94" r="52.93" gradientTransform="translate(770.09 1177.63) rotate(-137.91)" xlink:href="#radial-gradient-5"/><radialGradient id="radial-gradient-40" cx="830.31" cy="97.64" r="51.2" gradientTransform="translate(770.09 1177.63) rotate(-137.91)" xlink:href="#radial-gradient-5"/><radialGradient id="radial-gradient-41" cx="310.93" cy="764.7" r="9.28" xlink:href="#radial-gradient-5"/><radialGradient id="radial-gradient-42" cx="308.82" cy="789.04" r="5.96" xlink:href="#radial-gradient-5"/><radialGradient id="radial-gradient-43" cx="153.9" cy="878.1" r="10.6" xlink:href="#radial-gradient-5"/><radialGradient id="radial-gradient-44" cx="161.54" cy="842.94" r="7.95" xlink:href="#radial-gradient-5"/><radialGradient id="radial-gradient-45" cx="210.25" cy="896.87" r="30.48" xlink:href="#radial-gradient-5"/><radialGradient id="radial-gradient-46" cx="230.64" cy="883.83" r="11.26" xlink:href="#radial-gradient-5"/><radialGradient id="radial-gradient-47" cx="232.44" cy="904.59" r="8.61" xlink:href="#radial-gradient-5"/><radialGradient id="radial-gradient-48" cx="129.34" cy="878.96" r="8.61" xlink:href="#radial-gradient-5"/><radialGradient id="radial-gradient-49" cx="164.19" cy="815.74" r="6.63" xlink:href="#radial-gradient-5"/><radialGradient id="radial-gradient-50" cx="202.08" cy="738.35" r="18.55" xlink:href="#radial-gradient-5"/><radialGradient id="radial-gradient-51" cx="183.68" cy="780.03" r="7.95" xlink:href="#radial-gradient-5"/><radialGradient id="radial-gradient-52" cx="188.6" cy="727.41" r="9.28" xlink:href="#radial-gradient-5"/><radialGradient id="radial-gradient-53" cx="158.37" cy="741.76" r="6.63" xlink:href="#radial-gradient-5"/><radialGradient id="radial-gradient-54" cx="246.59" cy="740.06" r="27.16" xlink:href="#radial-gradient-5"/><radialGradient id="radial-gradient-55" cx="223.23" cy="781.99" r="10.6" xlink:href="#radial-gradient-5"/><radialGradient id="radial-gradient-56" cx="303.52" cy="738.58" r="8.61" xlink:href="#radial-gradient-5"/><radialGradient id="radial-gradient-57" cx="292.81" cy="789.96" r="11.93" xlink:href="#radial-gradient-5"/><radialGradient id="radial-gradient-58" cx="291.96" cy="814.03" r="10.6" xlink:href="#radial-gradient-5"/><radialGradient id="radial-gradient-59" cx="243.35" cy="858.48" r="9.28" xlink:href="#radial-gradient-5"/><radialGradient id="radial-gradient-60" cx="295.62" cy="857.23" r="9.94" xlink:href="#radial-gradient-5"/><radialGradient id="radial-gradient-61" cx="295.36" cy="874.3" r="8.61" xlink:href="#radial-gradient-5"/><radialGradient id="radial-gradient-62" cx="294.43" cy="910.38" r="17.23" gradientTransform="translate(297.72 -384.23) rotate(24.33)" xlink:href="#radial-gradient-5"/><radialGradient id="radial-gradient-63" cx="311.31" cy="917.29" r="5.3" xlink:href="#radial-gradient-5"/><radialGradient id="radial-gradient-64" cx="331.27" cy="894.08" r="4.64" xlink:href="#radial-gradient-5"/><radialGradient id="radial-gradient-65" cx="350.02" cy="819.83" r="6.63" xlink:href="#radial-gradient-5"/><radialGradient id="radial-gradient-66" cx="335.94" cy="767.68" r="4.64" xlink:href="#radial-gradient-5"/><radialGradient id="radial-gradient-67" cx="201.53" cy="760.25" r="116.68" xlink:href="#radial-gradient-5"/><radialGradient id="radial-gradient-68" cx="484.9" cy="991.21" r="443.01" xlink:href="#radial-gradient"/><radialGradient id="radial-gradient-69" cx="511.46" cy="1560.65" r="413.8" gradientTransform="matrix(1.14, 0.42, -0.15, 0.4, -2.36, -146.72)" xlink:href="#radial-gradient"/><radialGradient id="radial-gradient-70" cx="495.5" cy="964.77" r="457.25" gradientTransform="translate(228.62 -392.23) rotate(20.21)" xlink:href="#radial-gradient"/><radialGradient id="radial-gradient-71" cx="489.75" cy="1000.35" r="472.77" gradientTransform="translate(228.62 -392.23) rotate(20.21)" xlink:href="#radial-gradient"/><radialGradient id="radial-gradient-72" cx="497.71" cy="967.82" r="98.57" xlink:href="#radial-gradient-5"/><radialGradient id="radial-gradient-73" cx="495.75" cy="963.19" r="110.21" xlink:href="#radial-gradient-5"/><radialGradient id="radial-gradient-74" cx="496.21" cy="961.6" r="81.86" xlink:href="#radial-gradient-5"/><radialGradient id="radial-gradient-75" cx="493.77" cy="972.67" r="92.49" xlink:href="#radial-gradient-5"/><radialGradient id="radial-gradient-76" cx="547.59" cy="1114.02" r="85.61" xlink:href="#radial-gradient-5"/><radialGradient id="radial-gradient-77" cx="633.73" cy="994.77" r="30.06" gradientTransform="matrix(0.77, 0.64, -0.64, 0.77, 496.18, -481.62)" xlink:href="#radial-gradient-5"/><radialGradient id="radial-gradient-78" cx="634.74" cy="995.16" r="29.08" gradientTransform="matrix(0.77, 0.64, -0.64, 0.77, 496.18, -481.62)" xlink:href="#radial-gradient-5"/><radialGradient id="radial-gradient-79" cx="653.87" cy="1000.99" r="10.8" gradientTransform="matrix(1.04, 0.87, -0.64, 0.77, 323.32, -627.18)" xlink:href="#radial-gradient-5"/><radialGradient id="radial-gradient-81" cx="654.23" cy="1001.14" r="10.45" gradientTransform="matrix(1.04, 0.87, -0.64, 0.77, 323.32, -627.18)" xlink:href="#radial-gradient-5"/><radialGradient id="radial-gradient-82" cx="722.53" cy="65.48" r="19.25" gradientTransform="matrix(-1.29, -0.42, 0.31, -0.95, 1285.81, 1119.68)" xlink:href="#radial-gradient-5"/><radialGradient id="radial-gradient-83" cx="723.18" cy="65.73" r="18.62" gradientTransform="matrix(-1.29, -0.42, 0.31, -0.95, 1285.81, 1119.68)" xlink:href="#radial-gradient-5"/><radialGradient id="radial-gradient-84" cx="462.21" cy="967.06" r="20.97" gradientTransform="matrix(1.35, 0.17, -0.12, 0.99, -157.38, -305.81)" xlink:href="#radial-gradient-5"/><radialGradient id="radial-gradient-85" cx="462.91" cy="967.34" r="20.28" gradientTransform="matrix(1.35, 0.17, -0.12, 0.99, -157.38, -305.81)" xlink:href="#radial-gradient-5"/><radialGradient id="radial-gradient-86" cx="730.47" cy="971.15" r="13.2" gradientTransform="translate(658.4 -491.47) rotate(51.51)" xlink:href="#radial-gradient-5"/><radialGradient id="radial-gradient-87" cx="730.92" cy="971.32" r="12.76" gradientTransform="translate(658.4 -491.47) rotate(51.51)" xlink:href="#radial-gradient-5"/><radialGradient id="radial-gradient-88" cx="516.99" cy="1013.15" r="19.45" gradientTransform="translate(284.24 -422.05) rotate(24.99)" xlink:href="#radial-gradient-5"/><radialGradient id="radial-gradient-90" cx="517.64" cy="1013.4" r="18.82" gradientTransform="translate(284.24 -422.05) rotate(24.99)" xlink:href="#radial-gradient-5"/><radialGradient id="radial-gradient-91" cx="722.94" cy="75.18" r="19.45" gradientTransform="translate(1052.71 1082.81) rotate(-158.45)" xlink:href="#radial-gradient-5"/><radialGradient id="radial-gradient-92" cx="723.59" cy="75.43" r="18.81" gradientTransform="translate(1052.71 1082.81) rotate(-158.45)" xlink:href="#radial-gradient-5"/><radialGradient id="radial-gradient-93" cx="559.83" cy="35.03" r="14.89" gradientTransform="translate(773.92 1179.68) rotate(-138.1)" xlink:href="#radial-gradient-5"/><radialGradient id="radial-gradient-95" cx="560.33" cy="35.22" r="14.4" gradientTransform="translate(773.92 1179.68) rotate(-138.1)" xlink:href="#radial-gradient-5"/><radialGradient id="radial-gradient-96" cx="570.2" cy="63.76" r="11.78" gradientTransform="translate(773.92 1179.68) rotate(-138.1)" xlink:href="#radial-gradient-5"/><radialGradient id="radial-gradient-97" cx="570.6" cy="63.92" r="11.39" gradientTransform="translate(773.92 1179.68) rotate(-138.1)" xlink:href="#radial-gradient-5"/><radialGradient id="radial-gradient-98" cx="1093.74" cy="415.55" r="27.49" gradientTransform="translate(1507.3 319.05) rotate(139.75)" xlink:href="#radial-gradient-5"/><radialGradient id="radial-gradient-100" cx="1094.66" cy="415.91" r="26.59" gradientTransform="translate(1507.3 319.05) rotate(139.75)" xlink:href="#radial-gradient-5"/><radialGradient id="radial-gradient-101" cx="1103.99" cy="615.21" r="11.78" gradientTransform="translate(1433.94 -17.91) rotate(117.02)" xlink:href="#radial-gradient-5"/><radialGradient id="radial-gradient-102" cx="1104.38" cy="615.36" r="11.4" gradientTransform="translate(1433.94 -17.91) rotate(117.02)" xlink:href="#radial-gradient-5"/><radialGradient id="radial-gradient-103" cx="203.37" cy="688.16" r="11.78" gradientTransform="translate(-266.8 334.74) rotate(-37.83)" xlink:href="#radial-gradient-5"/><radialGradient id="radial-gradient-105" cx="203.77" cy="688.32" r="11.4" gradientTransform="translate(-266.8 334.74) rotate(-37.83)" xlink:href="#radial-gradient-5"/><radialGradient id="radial-gradient-106" cx="551.45" cy="49.32" r="26.05" gradientTransform="translate(770.09 1177.63) rotate(-137.91)" xlink:href="#radial-gradient-5"/><radialGradient id="radial-gradient-107" cx="552.33" cy="49.66" r="25.2" gradientTransform="translate(770.09 1177.63) rotate(-137.91)" xlink:href="#radial-gradient-5"/><radialGradient id="radial-gradient-108" cx="553.24" cy="973.75" r="4.57" xlink:href="#radial-gradient-5"/><radialGradient id="radial-gradient-109" cx="552.21" cy="985.74" r="2.93" xlink:href="#radial-gradient-5"/><radialGradient id="radial-gradient-110" cx="475.96" cy="1029.57" r="5.22" xlink:href="#radial-gradient-5"/><radialGradient id="radial-gradient-111" cx="479.72" cy="1012.26" r="3.91" xlink:href="#radial-gradient-5"/><radialGradient id="radial-gradient-112" cx="503.69" cy="1038.81" r="15" xlink:href="#radial-gradient-5"/><radialGradient id="radial-gradient-113" cx="513.73" cy="1032.39" r="5.54" xlink:href="#radial-gradient-5"/><radialGradient id="radial-gradient-114" cx="514.62" cy="1042.61" r="4.24" xlink:href="#radial-gradient-5"/><radialGradient id="radial-gradient-115" cx="463.87" cy="1029.99" r="4.24" xlink:href="#radial-gradient-5"/><radialGradient id="radial-gradient-116" cx="481.02" cy="998.88" r="3.26" xlink:href="#radial-gradient-5"/><radialGradient id="radial-gradient-117" cx="499.67" cy="960.79" r="9.13" xlink:href="#radial-gradient-5"/><radialGradient id="radial-gradient-118" cx="490.61" cy="981.3" r="3.91" xlink:href="#radial-gradient-5"/><radialGradient id="radial-gradient-119" cx="493.03" cy="955.4" r="4.57" xlink:href="#radial-gradient-5"/><radialGradient id="radial-gradient-120" cx="478.16" cy="962.47" r="3.26" xlink:href="#radial-gradient-5"/><radialGradient id="radial-gradient-121" cx="521.58" cy="961.63" r="13.37" xlink:href="#radial-gradient-5"/><radialGradient id="radial-gradient-122" cx="510.08" cy="982.26" r="5.22" xlink:href="#radial-gradient-5"/><radialGradient id="radial-gradient-123" cx="549.6" cy="960.9" r="4.24" xlink:href="#radial-gradient-5"/><radialGradient id="radial-gradient-124" cx="544.33" cy="986.19" r="5.87" xlink:href="#radial-gradient-5"/><radialGradient id="radial-gradient-125" cx="543.91" cy="998.03" r="5.22" xlink:href="#radial-gradient-5"/><radialGradient id="radial-gradient-126" cx="519.98" cy="1019.91" r="4.57" xlink:href="#radial-gradient-5"/><radialGradient id="radial-gradient-127" cx="545.71" cy="1019.3" r="4.89" xlink:href="#radial-gradient-5"/><radialGradient id="radial-gradient-128" cx="545.58" cy="1027.7" r="4.24" xlink:href="#radial-gradient-5"/><radialGradient id="radial-gradient-129" cx="545.12" cy="1045.46" r="8.48" xlink:href="#radial-gradient-5"/><radialGradient id="radial-gradient-130" cx="553.43" cy="1048.86" r="2.61" xlink:href="#radial-gradient-5"/><radialGradient id="radial-gradient-131" cx="563.26" cy="1037.44" r="2.28" xlink:href="#radial-gradient-5"/><radialGradient id="radial-gradient-132" cx="572.48" cy="1000.89" r="3.26" xlink:href="#radial-gradient-5"/><radialGradient id="radial-gradient-133" cx="565.55" cy="975.22" r="2.28" xlink:href="#radial-gradient-5"/><radialGradient id="radial-gradient-134" cx="499.4" cy="971.57" r="57.43" xlink:href="#radial-gradient-5"/><radialGradient id="radial-gradient-135" cx="418.72" cy="452.4" r="443.01" xlink:href="#radial-gradient"/><radialGradient id="radial-gradient-136" cx="445.31" cy="348.04" r="413.8" gradientTransform="matrix(1.14, 0.42, -0.15, 0.4, -2.36, -146.72)" xlink:href="#radial-gradient"/><radialGradient id="radial-gradient-137" cx="414.88" cy="441.7" r="457.25" gradientTransform="translate(228.62 -392.23) rotate(20.21)" xlink:href="#radial-gradient"/><radialGradient id="radial-gradient-138" cx="409.13" cy="477.28" r="472.77" gradientTransform="translate(228.62 -392.23) rotate(20.21)" xlink:href="#radial-gradient"/><radialGradient id="radial-gradient-139" cx="417.86" cy="444.62" r="98.57" xlink:href="#radial-gradient-5"/><radialGradient id="radial-gradient-140" cx="415.9" cy="440" r="110.21" xlink:href="#radial-gradient-5"/><radialGradient id="radial-gradient-141" cx="416.36" cy="438.4" r="81.86" xlink:href="#radial-gradient-5"/><radialGradient id="radial-gradient-142" cx="413.92" cy="449.47" r="92.49" xlink:href="#radial-gradient-5"/><radialGradient id="radial-gradient-143" cx="467.74" cy="590.83" r="85.61" xlink:href="#radial-gradient-5"/><radialGradient id="radial-gradient-144" cx="380.27" cy="530.14" r="30.06" gradientTransform="matrix(0.77, 0.64, -0.64, 0.77, 496.18, -481.62)" xlink:href="#radial-gradient-5"/><radialGradient id="radial-gradient-145" cx="381.28" cy="530.54" r="29.08" gradientTransform="matrix(0.77, 0.64, -0.64, 0.77, 496.18, -481.62)" xlink:href="#radial-gradient-5"/><radialGradient id="radial-gradient-146" cx="467.36" cy="536.37" r="10.8" gradientTransform="matrix(1.04, 0.87, -0.64, 0.77, 323.32, -627.18)" xlink:href="#radial-gradient-5"/><radialGradient id="radial-gradient-148" cx="467.72" cy="536.51" r="10.45" gradientTransform="matrix(1.04, 0.87, -0.64, 0.77, 323.32, -627.18)" xlink:href="#radial-gradient-5"/><radialGradient id="radial-gradient-149" cx="767.03" cy="591.25" r="19.25" gradientTransform="matrix(-1.29, -0.42, 0.31, -0.95, 1285.81, 1119.68)" xlink:href="#radial-gradient-5"/><radialGradient id="radial-gradient-150" cx="767.68" cy="591.51" r="18.62" gradientTransform="matrix(-1.29, -0.42, 0.31, -0.95, 1285.81, 1119.68)" xlink:href="#radial-gradient-5"/><radialGradient id="radial-gradient-151" cx="491.95" cy="439.37" r="20.97" gradientTransform="matrix(1.35, 0.17, -0.12, 0.99, -157.38, -305.81)" xlink:href="#radial-gradient-5"/><radialGradient id="radial-gradient-152" cx="492.65" cy="439.65" r="20.28" gradientTransform="matrix(1.35, 0.17, -0.12, 0.99, -157.38, -305.81)" xlink:href="#radial-gradient-5"/><radialGradient id="radial-gradient-153" cx="389.88" cy="566.07" r="13.2" gradientTransform="translate(658.4 -491.47) rotate(51.51)" xlink:href="#radial-gradient-5"/><radialGradient id="radial-gradient-154" cx="390.32" cy="566.25" r="12.76" gradientTransform="translate(658.4 -491.47) rotate(51.51)" xlink:href="#radial-gradient-5"/><radialGradient id="radial-gradient-155" cx="393.12" cy="498.61" r="19.45" gradientTransform="translate(284.24 -422.05) rotate(24.99)" xlink:href="#radial-gradient-5"/><radialGradient id="radial-gradient-157" cx="393.77" cy="498.86" r="18.82" gradientTransform="translate(284.24 -422.05) rotate(24.99)" xlink:href="#radial-gradient-5"/><radialGradient id="radial-gradient-158" cx="815.78" cy="596.19" r="19.45" gradientTransform="translate(1052.71 1082.81) rotate(-158.45)" xlink:href="#radial-gradient-5"/><radialGradient id="radial-gradient-159" cx="816.43" cy="596.44" r="18.81" gradientTransform="translate(1052.71 1082.81) rotate(-158.45)" xlink:href="#radial-gradient-5"/><radialGradient id="radial-gradient-160" cx="828.05" cy="491.24" r="14.89" gradientTransform="translate(773.92 1179.68) rotate(-138.1)" xlink:href="#radial-gradient-5"/><radialGradient id="radial-gradient-162" cx="828.55" cy="491.43" r="14.4" gradientTransform="translate(773.92 1179.68) rotate(-138.1)" xlink:href="#radial-gradient-5"/><radialGradient id="radial-gradient-163" cx="838.43" cy="519.97" r="11.78" gradientTransform="translate(773.92 1179.68) rotate(-138.1)" xlink:href="#radial-gradient-5"/><radialGradient id="radial-gradient-164" cx="838.83" cy="520.12" r="11.39" gradientTransform="translate(773.92 1179.68) rotate(-138.1)" xlink:href="#radial-gradient-5"/><radialGradient id="radial-gradient-165" cx="678.44" cy="743.57" r="27.49" gradientTransform="translate(1507.3 319.05) rotate(139.75)" xlink:href="#radial-gradient-5"/><radialGradient id="radial-gradient-167" cx="679.36" cy="743.93" r="26.59" gradientTransform="translate(1507.3 319.05) rotate(139.75)" xlink:href="#radial-gradient-5"/><radialGradient id="radial-gradient-168" cx="594.15" cy="757.28" r="11.78" gradientTransform="translate(1433.94 -17.91) rotate(117.02)" xlink:href="#radial-gradient-5"/><radialGradient id="radial-gradient-169" cx="594.55" cy="757.43" r="11.4" gradientTransform="translate(1433.94 -17.91) rotate(117.02)" xlink:href="#radial-gradient-5"/><radialGradient id="radial-gradient-170" cx="604.45" cy="342.9" r="11.78" gradientTransform="translate(-266.8 334.74) rotate(-37.83)" xlink:href="#radial-gradient-5"/><radialGradient id="radial-gradient-172" cx="604.84" cy="343.06" r="11.39" gradientTransform="translate(-266.8 334.74) rotate(-37.83)" xlink:href="#radial-gradient-5"/><radialGradient id="radial-gradient-173" cx="821.17" cy="504.66" r="26.05" gradientTransform="translate(770.09 1177.63) rotate(-137.91)" xlink:href="#radial-gradient-5"/><radialGradient id="radial-gradient-174" cx="822.04" cy="505.01" r="25.2" gradientTransform="translate(770.09 1177.63) rotate(-137.91)" xlink:href="#radial-gradient-5"/><radialGradient id="radial-gradient-175" cx="473.39" cy="450.56" r="4.57" xlink:href="#radial-gradient-5"/><radialGradient id="radial-gradient-176" cx="472.36" cy="462.54" r="2.93" xlink:href="#radial-gradient-5"/><radialGradient id="radial-gradient-177" cx="396.11" cy="506.37" r="5.22" xlink:href="#radial-gradient-5"/><radialGradient id="radial-gradient-178" cx="399.87" cy="489.07" r="3.91" xlink:href="#radial-gradient-5"/><radialGradient id="radial-gradient-179" cx="423.84" cy="515.61" r="15" xlink:href="#radial-gradient-5"/><radialGradient id="radial-gradient-180" cx="433.88" cy="509.19" r="5.54" xlink:href="#radial-gradient-5"/><radialGradient id="radial-gradient-181" cx="434.77" cy="519.41" r="4.24" xlink:href="#radial-gradient-5"/><radialGradient id="radial-gradient-182" cx="384.02" cy="506.8" r="4.24" xlink:href="#radial-gradient-5"/><radialGradient id="radial-gradient-183" cx="401.17" cy="475.68" r="3.26" xlink:href="#radial-gradient-5"/><radialGradient id="radial-gradient-184" cx="419.82" cy="437.59" r="9.13" xlink:href="#radial-gradient-5"/><radialGradient id="radial-gradient-185" cx="410.76" cy="458.1" r="3.91" xlink:href="#radial-gradient-5"/><radialGradient id="radial-gradient-186" cx="413.19" cy="432.21" r="4.57" xlink:href="#radial-gradient-5"/><radialGradient id="radial-gradient-187" cx="398.31" cy="439.27" r="3.26" xlink:href="#radial-gradient-5"/><radialGradient id="radial-gradient-188" cx="441.73" cy="438.43" r="13.37" xlink:href="#radial-gradient-5"/><radialGradient id="radial-gradient-189" cx="430.23" cy="459.07" r="5.22" xlink:href="#radial-gradient-5"/><radialGradient id="radial-gradient-190" cx="469.75" cy="437.7" r="4.24" xlink:href="#radial-gradient-5"/><radialGradient id="radial-gradient-191" cx="464.48" cy="462.99" r="5.87" xlink:href="#radial-gradient-5"/><radialGradient id="radial-gradient-192" cx="464.06" cy="474.84" r="5.22" xlink:href="#radial-gradient-5"/><radialGradient id="radial-gradient-193" cx="440.14" cy="496.72" r="4.57" xlink:href="#radial-gradient-5"/><radialGradient id="radial-gradient-194" cx="465.86" cy="496.1" r="4.89" xlink:href="#radial-gradient-5"/><radialGradient id="radial-gradient-195" cx="465.73" cy="504.5" r="4.24" xlink:href="#radial-gradient-5"/><radialGradient id="radial-gradient-196" cx="465.28" cy="522.26" r="8.48" xlink:href="#radial-gradient-5"/><radialGradient id="radial-gradient-197" cx="473.58" cy="525.66" r="2.61" xlink:href="#radial-gradient-5"/><radialGradient id="radial-gradient-198" cx="483.41" cy="514.24" r="2.28" xlink:href="#radial-gradient-5"/><radialGradient id="radial-gradient-199" cx="492.63" cy="477.69" r="3.26" xlink:href="#radial-gradient-5"/><radialGradient id="radial-gradient-200" cx="485.7" cy="452.02" r="2.28" xlink:href="#radial-gradient-5"/><radialGradient id="radial-gradient-201" cx="419.55" cy="448.37" r="57.43" xlink:href="#radial-gradient-5"/></defs><title>meteor-pack</title><g class="cls-1"><g id="Layer_1" data-name="Layer 1"><path class="cls-2" d="M863.68,778.46C697.21,611.63,462.08,548.59,249.21,597.4c-91,19.69-192.57-2.66-233.3-80h0C-25.26,440.85,60.5,325.62,206.15,312.33c316.39-28.55,615.8,109.3,795.82,346,82.49,107.38,88.2,229.75,48.83,245h0C1011.19,919.36,937.26,850.4,863.68,778.46Z" transform="translate(-5.59 -133.73)"/><path class="cls-3" d="M936.32,802.18c-169-252-483.44-351.65-756.62-255C138.83,561.39,92.61,549.81,75.54,515h0c-17.08-34.62,11.14-81.91,63.56-96.68,339-95.39,691.77,53.41,860.24,344.34,26.08,44.69,28.16,91.18,10.86,98.62h0C992.79,868.86,961.86,840.05,936.32,802.18Z" transform="translate(-5.59 -133.73)"/><path class="cls-4" d="M153.9,382.78a108.82,108.82,0,0,0-41.06,21.72c-16.84,27.17-22.33,56.91-16.51,85,20.85,26.74,61.31,35,98.22,22.11,273.14-96.74,588.2,5.19,753.66,260.75,16.74,25.82,35.72,47,51.87,56.66,13.2-26.39,12.4-76.4-9.53-130.8C818.38,426.93,479.59,291,153.9,382.78Z" transform="translate(-5.59 -133.73)"/><path class="cls-5" d="M983.73,796.45C816.22,504.28,462.27,355.14,123,452.64c-41.69,12-68.75,45.21-68.09,75.34,16.65,27.45,42.68,46.62,71.41,59.37a103.4,103.4,0,0,0,38-6.1c272.9-98.25,588.16,1.42,756.22,254.43,2,3.05,4.08,6,6.15,8.88,27.74,22.23,53.6,39,74.84,43.17C1010.19,871.55,1005,833.19,983.73,796.45Z" transform="translate(-5.59 -133.73)"/><path class="cls-6" d="M277.94,515a127.35,127.35,0,1,1-75.75-163.4A127.34,127.34,0,0,1,277.94,515Z" transform="translate(-5.59 -133.73)"/><circle class="cls-7" cx="158.37" cy="471.14" r="142.39" transform="translate(-292.35 116.25) rotate(-45)"/><path class="cls-8" d="M40,443.38a127.36,127.36,0,0,1,245.71,26.21A127.36,127.36,0,1,0,32.23,488.75,127.13,127.13,0,0,1,40,443.38Z" transform="translate(-5.59 -133.73)"/><path class="cls-9" d="M177.89,567.06a127.37,127.37,0,0,1-30.8-222.78A127.36,127.36,0,1,0,233,574.35,126.88,126.88,0,0,1,177.89,567.06Z" transform="translate(-5.59 -133.73)"/><path class="cls-10" d="M273.59,416.93A122,122,0,0,1,34.27,442.66a127.34,127.34,0,1,0,239.32-25.73Z" transform="translate(-5.59 -133.73)"/><path class="cls-11" d="M96.22,413.27c-9.72,11.55-23.13,16.26-29.95,10.52S61.78,404,71.5,392.48s23.12-16.26,30-10.52S105.93,401.72,96.22,413.27Z" transform="translate(-5.59 -133.73)"/><path class="cls-12" d="M103.56,384.45c-7.28-2-17.94,2.76-26.07,12.42C69,407,66.13,419,70.14,425.69c7.28,2,18-2.76,26.08-12.42C104.73,403.15,107.58,391.14,103.56,384.45Z" transform="translate(-5.59 -133.73)"/><path class="cls-13" d="M144.5,439.83c-3.49,4.15-9,5.25-12.36,2.44s-3.2-8.44.29-12.59,9-5.24,12.35-2.44S148,435.68,144.5,439.83Z" transform="translate(-5.59 -133.73)"/><path class="cls-13" d="M144.5,439.83c-3.49,4.15-9,5.25-12.36,2.44s-3.2-8.44.29-12.59,9-5.24,12.35-2.44S148,435.68,144.5,439.83Z" transform="translate(-5.59 -133.73)"/><path class="cls-14" d="M145.86,428.41c-3.29-1.3-7.63,0-10.55,3.47s-3.53,8.41-1.36,11.42c3.29,1.3,7.63,0,10.55-3.47S148,431.42,145.86,428.41Z" transform="translate(-5.59 -133.73)"/><path class="cls-15" d="M176.12,490.37c3-9.19,11.39-14.7,18.78-12.3s10.94,11.8,7.95,21-11.4,14.7-18.78,12.3S173.13,499.57,176.12,490.37Z" transform="translate(-5.59 -133.73)"/><path class="cls-16" d="M181.51,510.16c6.31-.06,12.61-5.1,15.11-12.79,2.62-8.06.21-16.26-5.4-19.79-6.31.06-12.6,5.1-15.1,12.79C173.5,498.43,175.91,506.64,181.51,510.16Z" transform="translate(-5.59 -133.73)"/><path class="cls-17" d="M129.9,494.6c-1.3,10.45-9.15,18.07-17.54,17s-14.14-10.35-12.84-20.8,9.15-18.08,17.54-17S131.2,484.15,129.9,494.6Z" transform="translate(-5.59 -133.73)"/><path class="cls-18" d="M120,474.55c-6.73,1.37-12.42,8.06-13.51,16.8-1.13,9.16,3.14,17.44,9.86,20,6.74-1.37,12.43-8.06,13.51-16.8C131,485.44,126.76,477.16,120,474.55Z" transform="translate(-5.59 -133.73)"/><path class="cls-19" d="M127,387.1c-5.18,4.13-11.36,5-13.8,1.92s-.21-8.89,5-13,11.36-5,13.8-1.92S132.19,383,127,387.1Z" transform="translate(-5.59 -133.73)"/><path class="cls-20" d="M132.67,375.35c-2.95-1.51-8-.38-12.3,3.07-4.54,3.61-6.81,8.53-5.67,11.76,3,1.5,8,.37,12.3-3.08C131.55,383.49,133.82,378.57,132.67,375.35Z" transform="translate(-5.59 -133.73)"/><path class="cls-21" d="M75.36,458.59c-4.13,8.85-11.72,14.05-17,11.61s-6.12-11.59-2-20.44,11.71-14.05,16.94-11.61S79.48,449.74,75.36,458.59Z" transform="translate(-5.59 -133.73)"/><path class="cls-21" d="M75.36,458.59c-4.13,8.85-11.72,14.05-17,11.61s-6.12-11.59-2-20.44,11.71-14.05,16.94-11.61S79.48,449.74,75.36,458.59Z" transform="translate(-5.59 -133.73)"/><path class="cls-22" d="M75.09,439.35c-4.89,0-10.74,4.74-14.2,12.15-3.61,7.75-3.37,15.74.26,19.24,4.89,0,10.75-4.74,14.21-12.15C79,450.83,78.73,442.85,75.09,439.35Z" transform="translate(-5.59 -133.73)"/><path class="cls-23" d="M251.89,477.52c3.59-9.08,10.85-14.73,16.22-12.61s6.81,11.21,3.22,20.29-10.85,14.73-16.21,12.61S248.31,486.61,251.89,477.52Z" transform="translate(-5.59 -133.73)"/><path class="cls-24" d="M253.31,496.71c4.88-.25,10.44-5.37,13.44-13,3.15-8,2.43-15.92-1.41-19.19-4.88.25-10.44,5.37-13.45,13C248.75,485.48,249.47,493.44,253.31,496.71Z" transform="translate(-5.59 -133.73)"/><g class="cls-25"><path class="cls-26" d="M201.87,551c5-5.56,11.7-7.68,15-4.73s1.9,9.85-3.09,15.42-11.71,7.68-15,4.73S196.87,556.53,201.87,551Z" transform="translate(-5.59 -133.73)"/><path class="cls-26" d="M201.87,551c5-5.56,11.7-7.68,15-4.73s1.9,9.85-3.09,15.42-11.71,7.68-15,4.73S196.87,556.53,201.87,551Z" transform="translate(-5.59 -133.73)"/><path class="cls-27" d="M197.77,565.11c3.57,1.12,8.93-1.08,13.11-5.73,4.37-4.88,6-10.78,4.09-14.15-3.57-1.12-8.93,1.08-13.11,5.73C197.49,555.84,195.89,561.74,197.77,565.11Z" transform="translate(-5.59 -133.73)"/></g><path class="cls-28" d="M223.36,496.81c3.95-4.4,9.26-6.08,11.87-3.74s1.5,7.79-2.45,12.2-9.26,6.08-11.86,3.74S219.41,501.22,223.36,496.81Z" transform="translate(-5.59 -133.73)"/><path class="cls-29" d="M220.12,508c2.83.88,7.07-.86,10.37-4.54,3.46-3.86,4.73-8.53,3.24-11.19-2.82-.89-7.06.85-10.37,4.53C219.9,500.67,218.63,505.34,220.12,508Z" transform="translate(-5.59 -133.73)"/><ellipse class="cls-30" cx="224.39" cy="393.17" rx="14.77" ry="25" transform="translate(-206.47 104.3) rotate(-40.24)"/><ellipse class="cls-30" cx="224.39" cy="393.17" rx="14.77" ry="25" transform="translate(-206.47 104.3) rotate(-40.24)"/><path class="cls-31" d="M238,413.77c2.95-6.25.28-16.61-7.18-25.42-7.81-9.23-18.2-13.65-24.84-11.06-2.95,6.25-.29,16.6,7.18,25.42C220.93,411.94,231.32,416.36,238,413.77Z" transform="translate(-5.59 -133.73)"/><path class="cls-32" d="M186.66,373.58c-5.27-2.68-8.25-7.39-6.67-10.5s7.15-3.46,12.42-.77,8.25,7.39,6.66,10.5S191.93,376.27,186.66,373.58Z" transform="translate(-5.59 -133.73)"/><path class="cls-33" d="M198.31,373.84c.13-3-2.64-6.61-7.05-8.86-4.61-2.35-9.45-2.38-11.65-.25-.13,3,2.64,6.6,7,8.85C191.28,375.94,196.11,376,198.31,373.84Z" transform="translate(-5.59 -133.73)"/><path class="cls-34" d="M73.11,523.16c3.63,4.67,4.33,10.2,1.57,12.34s-7.94.09-11.56-4.58-4.33-10.2-1.57-12.34S69.49,518.49,73.11,523.16Z" transform="translate(-5.59 -133.73)"/><path class="cls-34" d="M73.11,523.16c3.63,4.67,4.33,10.2,1.57,12.34s-7.94.09-11.56-4.58-4.33-10.2-1.57-12.34S69.49,518.49,73.11,523.16Z" transform="translate(-5.59 -133.73)"/><path class="cls-35" d="M62.68,518c-1.38,2.63-.42,7.11,2.61,11,3.18,4.09,7.55,6.17,10.44,5.18,1.37-2.62.42-7.1-2.62-11C69.94,519.06,65.57,517,62.68,518Z" transform="translate(-5.59 -133.73)"/><path class="cls-36" d="M235.41,522c8.77-9.71,20.53-13.38,26.26-8.2s3.28,17.25-5.49,27-20.52,13.38-26.26,8.19S226.64,531.68,235.41,522Z" transform="translate(-5.59 -133.73)"/><path class="cls-37" d="M228.17,546.71c6.24,2,15.62-1.84,23-10,7.68-8.5,10.52-18.82,7.24-24.73-6.24-2-15.62,1.83-23,10C227.73,530.48,224.89,540.8,228.17,546.71Z" transform="translate(-5.59 -133.73)"/><path class="cls-38" d="M256.17,440.77a4.07,4.07,0,1,1-2.42-5.23A4.07,4.07,0,0,1,256.17,440.77Z" transform="translate(-5.59 -133.73)"/><path class="cls-39" d="M245.72,460.82a2.62,2.62,0,1,1-1.56-3.36A2.62,2.62,0,0,1,245.72,460.82Z" transform="translate(-5.59 -133.73)"/><path class="cls-40" d="M69.76,494a4.66,4.66,0,1,1-2.77-6A4.65,4.65,0,0,1,69.76,494Z" transform="translate(-5.59 -133.73)"/><path class="cls-41" d="M89,462a3.49,3.49,0,1,1-2.08-4.48A3.5,3.5,0,0,1,89,462Z" transform="translate(-5.59 -133.73)"/><path class="cls-42" d="M116.76,543.53a13.4,13.4,0,1,1-8-17.19A13.39,13.39,0,0,1,116.76,543.53Z" transform="translate(-5.59 -133.73)"/><path class="cls-43" d="M139.85,526.25a5,5,0,1,1-2.95-6.36A5,5,0,0,1,139.85,526.25Z" transform="translate(-5.59 -133.73)"/><path class="cls-44" d="M134.33,544.7a3.79,3.79,0,1,1-2.25-4.86A3.79,3.79,0,0,1,134.33,544.7Z" transform="translate(-5.59 -133.73)"/><path class="cls-45" d="M46.34,485.15a3.79,3.79,0,1,1-2.25-4.86A3.79,3.79,0,0,1,46.34,485.15Z" transform="translate(-5.59 -133.73)"/><path class="cls-46" d="M100.76,436.54A2.91,2.91,0,1,1,99,432.8,2.9,2.9,0,0,1,100.76,436.54Z" transform="translate(-5.59 -133.73)"/><path class="cls-47" d="M163.3,384.39a8.15,8.15,0,1,1-4.85-10.46A8.15,8.15,0,0,1,163.3,384.39Z" transform="translate(-5.59 -133.73)"/><path class="cls-48" d="M131.38,410.54a3.49,3.49,0,1,1-2.07-4.48A3.5,3.5,0,0,1,131.38,410.54Z" transform="translate(-5.59 -133.73)"/><path class="cls-49" d="M154.15,363.67a4.08,4.08,0,1,1-2.43-5.23A4.08,4.08,0,0,1,154.15,363.67Z" transform="translate(-5.59 -133.73)"/><path class="cls-50" d="M120.75,365.08a2.91,2.91,0,1,1-1.73-3.74A2.92,2.92,0,0,1,120.75,365.08Z" transform="translate(-5.59 -133.73)"/><path class="cls-51" d="M204.75,406.72a11.94,11.94,0,1,1-7.1-15.32A11.94,11.94,0,0,1,204.75,406.72Z" transform="translate(-5.59 -133.73)"/><path class="cls-52" d="M167.92,427.65a4.66,4.66,0,1,1-2.77-6A4.67,4.67,0,0,1,167.92,427.65Z" transform="translate(-5.59 -133.73)"/><path class="cls-53" d="M258.18,413.28a3.79,3.79,0,1,1-2.25-4.86A3.78,3.78,0,0,1,258.18,413.28Z" transform="translate(-5.59 -133.73)"/><path class="cls-54" d="M230.54,459.91a5.24,5.24,0,1,1-3.11-6.72A5.23,5.23,0,0,1,230.54,459.91Z" transform="translate(-5.59 -133.73)"/><path class="cls-55" d="M221.43,481.39a4.66,4.66,0,1,1-2.77-6A4.65,4.65,0,0,1,221.43,481.39Z" transform="translate(-5.59 -133.73)"/><path class="cls-56" d="M160.46,505.57a4.08,4.08,0,1,1-2.43-5.23A4.1,4.1,0,0,1,160.46,505.57Z" transform="translate(-5.59 -133.73)"/><path class="cls-57" d="M210,522.79a4.37,4.37,0,1,1-2.6-5.6A4.37,4.37,0,0,1,210,522.79Z" transform="translate(-5.59 -133.73)"/><path class="cls-58" d="M203.82,537.9a3.79,3.79,0,1,1-2.25-4.85A3.79,3.79,0,0,1,203.82,537.9Z" transform="translate(-5.59 -133.73)"/><circle class="cls-59" cx="183.67" cy="574.26" r="7.57" transform="translate(-47.21 -118.71) rotate(-4.21)"/><path class="cls-60" d="M203.91,581.67a2.33,2.33,0,1,1-1.39-3A2.34,2.34,0,0,1,203.91,581.67Z" transform="translate(-5.59 -133.73)"/><path class="cls-61" d="M230.62,566.34a2,2,0,1,1-1.21-2.62A2,2,0,0,1,230.62,566.34Z" transform="translate(-5.59 -133.73)"/><path class="cls-62" d="M273.83,504.32a2.91,2.91,0,1,1-1.73-3.74A2.92,2.92,0,0,1,273.83,504.32Z" transform="translate(-5.59 -133.73)"/><path class="cls-63" d="M278.5,449.26a2,2,0,1,1-1.22-2.61A2,2,0,0,1,278.5,449.26Z" transform="translate(-5.59 -133.73)"/><path class="cls-64" d="M226.86,469a74.2,74.2,0,1,1-44.13-95.19A74.19,74.19,0,0,1,226.86,469Z" transform="translate(-5.59 -133.73)"/><path class="cls-65" d="M710.62,883.68C628.68,801.57,513,770.55,408.19,794.57c-44.81,9.69-94.78-1.31-114.83-39.38h0C273.1,717.51,315.3,660.8,387,654.26c155.73-14,303.09,53.8,391.69,170.29,40.6,52.85,43.41,113.08,24,120.56h0C783.22,953,746.83,919.09,710.62,883.68Z" transform="translate(-5.59 -133.73)"/><path class="cls-66" d="M746.37,895.36C663.21,771.33,508.43,722.28,374,769.84c-20.12,7-42.87,1.3-51.27-15.82h0c-8.41-17,5.48-40.32,31.28-47.59,166.86-46.95,340.48,26.29,423.4,169.48,12.83,22,13.86,44.88,5.34,48.54h0C774.16,928.18,758.94,914,746.37,895.36Z" transform="translate(-5.59 -133.73)"/><path class="cls-67" d="M361.27,688.94a53.3,53.3,0,0,0-20.2,10.69c-8.29,13.37-11,28-8.13,41.82,10.26,13.17,30.18,17.23,48.34,10.89,134.44-47.62,289.5,2.56,370.94,128.34,8.24,12.7,17.58,23.14,25.53,27.88,6.5-13,6.11-37.6-4.69-64.37C688.32,710.66,521.58,643.74,361.27,688.94Z" transform="translate(-5.59 -133.73)"/><path class="cls-68" d="M769.71,892.54c-82.45-143.8-256.66-217.21-423.64-169.22-20.51,5.89-33.83,22.25-33.51,37.08,8.19,13.51,21,23,35.15,29.22a50.93,50.93,0,0,0,18.7-3c134.32-48.36,289.48.7,372.2,125.22,1,1.51,2,2.95,3,4.38,13.65,10.94,26.38,19.19,36.83,21.24C782.73,929.5,780.16,910.62,769.71,892.54Z" transform="translate(-5.59 -133.73)"/><path class="cls-69" d="M422.33,754A62.68,62.68,0,1,1,385,673.57,62.69,62.69,0,0,1,422.33,754Z" transform="translate(-5.59 -133.73)"/><path class="cls-70" d="M429.28,756.54a70.08,70.08,0,1,1-41.69-89.92A70.09,70.09,0,0,1,429.28,756.54Z" transform="translate(-5.59 -133.73)"/><path class="cls-71" d="M305.22,718.76a62.68,62.68,0,0,1,120.93,12.9,62.68,62.68,0,1,0-124.76,9.43A62.57,62.57,0,0,1,305.22,718.76Z" transform="translate(-5.59 -133.73)"/><path class="cls-72" d="M373.09,779.64A62.68,62.68,0,0,1,357.92,670a62.68,62.68,0,1,0,42.29,113.23A62.49,62.49,0,0,1,373.09,779.64Z" transform="translate(-5.59 -133.73)"/><path class="cls-73" d="M420.18,705.74A60,60,0,0,1,302.4,718.41a62.67,62.67,0,1,0,117.78-12.67Z" transform="translate(-5.59 -133.73)"/><path class="cls-74" d="M332.89,703.94c-4.79,5.69-11.39,8-14.75,5.18s-2.2-9.73,2.58-15.41,11.38-8,14.74-5.18S337.67,698.26,332.89,703.94Z" transform="translate(-5.59 -133.73)"/><path class="cls-75" d="M336.5,689.76c-3.58-1-8.83,1.35-12.83,6.11-4.19,5-5.59,10.89-3.62,14.18,3.59,1,8.84-1.35,12.84-6.11C337.07,699,338.48,693.05,336.5,689.76Z" transform="translate(-5.59 -133.73)"/><path class="cls-76" d="M356.65,717c-1.72,2-4.44,2.58-6.08,1.2s-1.58-4.16.14-6.2,4.44-2.58,6.08-1.2S358.37,715,356.65,717Z" transform="translate(-5.59 -133.73)"/><path class="cls-76" d="M356.65,717c-1.72,2-4.44,2.58-6.08,1.2s-1.58-4.16.14-6.2,4.44-2.58,6.08-1.2S358.37,715,356.65,717Z" transform="translate(-5.59 -133.73)"/><path class="cls-77" d="M357.32,711.39a4.75,4.75,0,0,0-5.19,1.71c-1.51,1.79-1.74,4.14-.67,5.62a4.77,4.77,0,0,0,5.19-1.7C358.15,715.23,358.39,712.87,357.32,711.39Z" transform="translate(-5.59 -133.73)"/><path class="cls-78" d="M372.21,741.89c1.47-4.53,5.61-7.24,9.24-6s5.39,5.8,3.92,10.33-5.61,7.23-9.24,6.05S370.74,746.42,372.21,741.89Z" transform="translate(-5.59 -133.73)"/><path class="cls-79" d="M374.86,751.63c3.11,0,6.21-2.51,7.44-6.3,1.29-4,.1-8-2.65-9.74-3.11,0-6.21,2.51-7.44,6.3C370.92,745.85,372.11,749.89,374.86,751.63Z" transform="translate(-5.59 -133.73)"/><path class="cls-80" d="M349.46,744c-.63,5.14-4.5,8.9-8.63,8.39s-7-5.1-6.32-10.24,4.5-8.9,8.63-8.39S350.1,738.83,349.46,744Z" transform="translate(-5.59 -133.73)"/><path class="cls-81" d="M344.61,734.1c-3.31.68-6.11,4-6.65,8.27-.56,4.51,1.55,8.58,4.85,9.87,3.32-.67,6.12-4,6.65-8.27C350,739.46,347.92,735.39,344.61,734.1Z" transform="translate(-5.59 -133.73)"/><path class="cls-82" d="M348,691.06c-2.56,2-5.6,2.46-6.8,1s-.1-4.38,2.45-6.41,5.6-2.45,6.8-.94S350.59,689,348,691.06Z" transform="translate(-5.59 -133.73)"/><path class="cls-83" d="M350.83,685.28c-1.46-.74-3.92-.19-6.06,1.51s-3.35,4.2-2.79,5.79c1.46.74,3.92.18,6.06-1.52S351.39,686.86,350.83,685.28Z" transform="translate(-5.59 -133.73)"/><path class="cls-84" d="M322.62,726.25c-2,4.35-5.77,6.91-8.34,5.71s-3-5.7-1-10.06,5.77-6.91,8.34-5.72S324.65,721.89,322.62,726.25Z" transform="translate(-5.59 -133.73)"/><path class="cls-84" d="M322.62,726.25c-2,4.35-5.77,6.91-8.34,5.71s-3-5.7-1-10.06,5.77-6.91,8.34-5.72S324.65,721.89,322.62,726.25Z" transform="translate(-5.59 -133.73)"/><path class="cls-85" d="M322.49,716.78c-2.41,0-5.29,2.33-7,6-1.78,3.81-1.66,7.74.13,9.47,2.4,0,5.29-2.34,7-6C324.4,722.43,324.28,718.5,322.49,716.78Z" transform="translate(-5.59 -133.73)"/><path class="cls-86" d="M409.51,735.57c1.76-4.47,5.34-7.25,8-6.21s3.35,5.51,1.58,10-5.34,7.25-8,6.2S407.74,740,409.51,735.57Z" transform="translate(-5.59 -133.73)"/><path class="cls-87" d="M410.2,745c2.41-.12,5.14-2.64,6.62-6.38,1.55-3.92,1.19-7.84-.69-9.45-2.41.12-5.15,2.65-6.62,6.39C408,739.48,408.31,743.4,410.2,745Z" transform="translate(-5.59 -133.73)"/><g class="cls-25"><path class="cls-88" d="M384.88,771.71c2.46-2.74,5.76-3.78,7.38-2.33s.94,4.85-1.52,7.59-5.76,3.78-7.38,2.33S382.43,774.45,384.88,771.71Z" transform="translate(-5.59 -133.73)"/><path class="cls-88" d="M384.88,771.71c2.46-2.74,5.76-3.78,7.38-2.33s.94,4.85-1.52,7.59-5.76,3.78-7.38,2.33S382.43,774.45,384.88,771.71Z" transform="translate(-5.59 -133.73)"/><path class="cls-89" d="M382.87,778.67c1.76.55,4.39-.53,6.45-2.82s2.94-5.3,2-7c-1.75-.55-4.39.53-6.45,2.82S381.94,777,382.87,778.67Z" transform="translate(-5.59 -133.73)"/></g><path class="cls-90" d="M395.46,745.06c2-2.17,4.56-3,5.84-1.84s.75,3.83-1.2,6-4.56,3-5.84,1.84S393.52,747.23,395.46,745.06Z" transform="translate(-5.59 -133.73)"/><path class="cls-91" d="M393.87,750.57c1.39.44,3.48-.42,5.1-2.23s2.33-4.2,1.6-5.51c-1.39-.44-3.48.42-5.11,2.23S393.14,749.26,393.87,750.57Z" transform="translate(-5.59 -133.73)"/><path class="cls-92" d="M390.42,698.74c-4.39-5.18-5.46-11.49-2.4-14.08s9.11-.49,13.5,4.69,5.46,11.49,2.4,14.09S394.81,703.93,390.42,698.74Z" transform="translate(-5.59 -133.73)"/><path class="cls-92" d="M390.42,698.74c-4.39-5.18-5.46-11.49-2.4-14.08s9.11-.49,13.5,4.69,5.46,11.49,2.4,14.09S394.81,703.93,390.42,698.74Z" transform="translate(-5.59 -133.73)"/><path class="cls-93" d="M402.65,704.19c1.45-3.08.14-8.18-3.53-12.51-3.85-4.55-9-6.72-12.23-5.45-1.45,3.08-.14,8.18,3.53,12.51C394.27,703.29,399.38,705.46,402.65,704.19Z" transform="translate(-5.59 -133.73)"/><path class="cls-94" d="M377.4,684.41c-2.59-1.32-4.06-3.64-3.28-5.17s3.52-1.7,6.11-.38,4.06,3.64,3.28,5.17S380,685.73,377.4,684.41Z" transform="translate(-5.59 -133.73)"/><path class="cls-95" d="M383.13,684.54c.07-1.46-1.29-3.26-3.47-4.36s-4.65-1.18-5.73-.13c-.06,1.46,1.3,3.25,3.47,4.36S382.05,685.58,383.13,684.54Z" transform="translate(-5.59 -133.73)"/><path class="cls-96" d="M321.51,758c1.79,2.3,2.14,5,.78,6.07s-3.91,0-5.7-2.25-2.13-5-.77-6.08S319.73,755.73,321.51,758Z" transform="translate(-5.59 -133.73)"/><path class="cls-96" d="M321.51,758c1.79,2.3,2.14,5,.78,6.07s-3.91,0-5.7-2.25-2.13-5-.77-6.08S319.73,755.73,321.51,758Z" transform="translate(-5.59 -133.73)"/><path class="cls-97" d="M316.38,755.48c-.68,1.29-.21,3.49,1.28,5.42s3.72,3,5.14,2.55c.68-1.29.21-3.5-1.29-5.42S317.8,755,316.38,755.48Z" transform="translate(-5.59 -133.73)"/><path class="cls-98" d="M401.39,757.44c4.32-4.77,10.11-6.58,12.93-4s1.61,8.49-2.7,13.27-10.1,6.58-12.93,4S397.08,762.22,401.39,757.44Z" transform="translate(-5.59 -133.73)"/><path class="cls-99" d="M397.83,769.62c3.07,1,7.69-.91,11.3-4.9,3.78-4.19,5.18-9.27,3.57-12.17-3.08-1-7.7.9-11.31,4.89C397.61,761.63,396.22,766.71,397.83,769.62Z" transform="translate(-5.59 -133.73)"/><path class="cls-100" d="M411.61,717.48a2,2,0,1,1-1.19-2.58A2,2,0,0,1,411.61,717.48Z" transform="translate(-5.59 -133.73)"/><path class="cls-101" d="M406.47,727.35a1.29,1.29,0,0,1-1.66.76,1.27,1.27,0,0,1-.76-1.65,1.29,1.29,0,0,1,1.65-.77A1.3,1.3,0,0,1,406.47,727.35Z" transform="translate(-5.59 -133.73)"/><path class="cls-102" d="M319.86,743.7a2.29,2.29,0,1,1-1.36-3A2.28,2.28,0,0,1,319.86,743.7Z" transform="translate(-5.59 -133.73)"/><path class="cls-103" d="M329.31,727.92a1.72,1.72,0,1,1-1-2.2A1.71,1.71,0,0,1,329.31,727.92Z" transform="translate(-5.59 -133.73)"/><path class="cls-104" d="M343,768.05a6.6,6.6,0,1,1-3.92-8.46A6.6,6.6,0,0,1,343,768.05Z" transform="translate(-5.59 -133.73)"/><path class="cls-105" d="M354.36,759.55a2.44,2.44,0,1,1-1.45-3.13A2.44,2.44,0,0,1,354.36,759.55Z" transform="translate(-5.59 -133.73)"/><path class="cls-106" d="M351.64,768.63a1.87,1.87,0,1,1-1.11-2.39A1.87,1.87,0,0,1,351.64,768.63Z" transform="translate(-5.59 -133.73)"/><path class="cls-107" d="M308.34,739.32a1.86,1.86,0,1,1-1.11-2.39A1.87,1.87,0,0,1,308.34,739.32Z" transform="translate(-5.59 -133.73)"/><path class="cls-108" d="M335.12,715.4a1.43,1.43,0,1,1-.85-1.84A1.43,1.43,0,0,1,335.12,715.4Z" transform="translate(-5.59 -133.73)"/><path class="cls-109" d="M365.9,689.73a4,4,0,1,1-2.38-5.15A4,4,0,0,1,365.9,689.73Z" transform="translate(-5.59 -133.73)"/><path class="cls-110" d="M350.19,702.6a1.72,1.72,0,1,1-1-2.21A1.71,1.71,0,0,1,350.19,702.6Z" transform="translate(-5.59 -133.73)"/><path class="cls-111" d="M361.4,679.53a2,2,0,1,1-1.2-2.58A2,2,0,0,1,361.4,679.53Z" transform="translate(-5.59 -133.73)"/><path class="cls-112" d="M345,680.22a1.43,1.43,0,1,1-.85-1.84A1.44,1.44,0,0,1,345,680.22Z" transform="translate(-5.59 -133.73)"/><path class="cls-113" d="M386.3,700.72a5.88,5.88,0,1,1-3.49-7.54A5.87,5.87,0,0,1,386.3,700.72Z" transform="translate(-5.59 -133.73)"/><path class="cls-114" d="M368.18,711a2.3,2.3,0,1,1-4.31-1.58,2.3,2.3,0,0,1,4.31,1.58Z" transform="translate(-5.59 -133.73)"/><path class="cls-115" d="M412.6,704a1.87,1.87,0,0,1-3.5-1.29,1.87,1.87,0,1,1,3.5,1.29Z" transform="translate(-5.59 -133.73)"/><path class="cls-116" d="M399,726.9a2.58,2.58,0,1,1-1.54-3.31A2.57,2.57,0,0,1,399,726.9Z" transform="translate(-5.59 -133.73)"/><path class="cls-117" d="M394.51,737.47a2.29,2.29,0,1,1-1.36-2.94A2.28,2.28,0,0,1,394.51,737.47Z" transform="translate(-5.59 -133.73)"/><path class="cls-118" d="M364.5,749.37a2,2,0,1,1-1.19-2.57A2,2,0,0,1,364.5,749.37Z" transform="translate(-5.59 -133.73)"/><path class="cls-119" d="M388.88,757.85a2.15,2.15,0,1,1-1.28-2.76A2.17,2.17,0,0,1,388.88,757.85Z" transform="translate(-5.59 -133.73)"/><path class="cls-120" d="M385.85,765.28a1.86,1.86,0,1,1-1.11-2.39A1.87,1.87,0,0,1,385.85,765.28Z" transform="translate(-5.59 -133.73)"/><path class="cls-121" d="M379.43,784.46a3.73,3.73,0,1,1-2.22-4.78A3.73,3.73,0,0,1,379.43,784.46Z" transform="translate(-5.59 -133.73)"/><path class="cls-122" d="M385.89,786.83a1.15,1.15,0,0,1-2.15-.79,1.15,1.15,0,1,1,2.15.79Z" transform="translate(-5.59 -133.73)"/><path class="cls-123" d="M399,779.28a1,1,0,1,1-.6-1.29A1,1,0,0,1,399,779.28Z" transform="translate(-5.59 -133.73)"/><path class="cls-124" d="M420.3,748.75a1.43,1.43,0,1,1-.85-1.84A1.43,1.43,0,0,1,420.3,748.75Z" transform="translate(-5.59 -133.73)"/><path class="cls-125" d="M422.6,721.66a1,1,0,0,1-1.29.59,1,1,0,0,1,.69-1.88A1,1,0,0,1,422.6,721.66Z" transform="translate(-5.59 -133.73)"/><path class="cls-126" d="M397.19,731.35a36.52,36.52,0,1,1-21.72-46.85A36.52,36.52,0,0,1,397.19,731.35Z" transform="translate(-5.59 -133.73)"/><path class="cls-127" d="M815.68,365C733.74,282.86,618,251.84,513.25,275.86c-44.81,9.69-94.78-1.3-114.83-39.37h0c-20.26-37.67,21.95-94.38,93.63-100.93,155.73-14,303.09,53.8,391.69,170.29,40.6,52.85,43.41,113.08,24,120.57h0C888.28,434.33,851.89,400.39,815.68,365Z" transform="translate(-5.59 -133.73)"/><path class="cls-128" d="M851.43,376.65C768.27,252.62,613.49,203.58,479,251.14c-20.12,7-42.87,1.3-51.27-15.83h0c-8.41-17,5.48-40.31,31.28-47.58C625.92,140.78,799.53,214,882.45,357.21c12.83,22,13.86,44.87,5.34,48.53h0C879.22,409.47,864,395.29,851.43,376.65Z" transform="translate(-5.59 -133.73)"/><path class="cls-129" d="M466.34,170.23a53.48,53.48,0,0,0-20.21,10.69c-8.29,13.37-11,28-8.13,41.83,10.26,13.16,30.18,17.23,48.34,10.88C620.78,186,775.85,236.19,857.28,362c8.24,12.71,17.58,23.14,25.53,27.88,6.5-13,6.11-37.59-4.69-64.37C793.38,192,626.64,125,466.34,170.23Z" transform="translate(-5.59 -133.73)"/><path class="cls-130" d="M874.77,373.83C792.32,230,618.11,156.62,451.14,204.62c-20.52,5.88-33.84,22.25-33.52,37.07,8.19,13.52,21,22.95,35.15,29.23a50.91,50.91,0,0,0,18.7-3c134.32-48.35,289.48.7,372.2,125.23,1,1.5,2,2.95,3,4.37,13.65,10.94,26.38,19.19,36.83,21.25C887.79,410.8,885.22,391.91,874.77,373.83Z" transform="translate(-5.59 -133.73)"/><path class="cls-131" d="M527.39,235.29a62.68,62.68,0,1,1-37.28-80.42A62.69,62.69,0,0,1,527.39,235.29Z" transform="translate(-5.59 -133.73)"/><path class="cls-132" d="M534.34,237.84a70.09,70.09,0,1,1-41.69-89.92A70.08,70.08,0,0,1,534.34,237.84Z" transform="translate(-5.59 -133.73)"/><path class="cls-133" d="M410.28,200.06A62.68,62.68,0,0,1,531.21,213a62.68,62.68,0,1,0-124.76,9.43A62.57,62.57,0,0,1,410.28,200.06Z" transform="translate(-5.59 -133.73)"/><path class="cls-134" d="M478.15,260.93A62.69,62.69,0,0,1,463,151.28a62.68,62.68,0,1,0,42.28,113.24A62.37,62.37,0,0,1,478.15,260.93Z" transform="translate(-5.59 -133.73)"/><path class="cls-135" d="M525.25,187A60,60,0,0,1,407.46,199.7,62.67,62.67,0,1,0,525.25,187Z" transform="translate(-5.59 -133.73)"/><path class="cls-136" d="M438,185.24c-4.78,5.68-11.38,8-14.74,5.18S421,180.69,425.78,175s11.38-8,14.74-5.18S442.73,179.55,438,185.24Z" transform="translate(-5.59 -133.73)"/><path class="cls-137" d="M441.56,171.05c-3.58-1-8.83,1.36-12.83,6.12-4.19,5-5.59,10.89-3.62,14.18,3.59,1,8.84-1.36,12.84-6.11C442.14,180.25,443.54,174.34,441.56,171.05Z" transform="translate(-5.59 -133.73)"/><path class="cls-138" d="M461.71,198.31c-1.72,2-4.44,2.58-6.08,1.2s-1.58-4.15.14-6.2,4.44-2.58,6.08-1.2S463.43,196.27,461.71,198.31Z" transform="translate(-5.59 -133.73)"/><path class="cls-138" d="M461.71,198.31c-1.72,2-4.44,2.58-6.08,1.2s-1.58-4.15.14-6.2,4.44-2.58,6.08-1.2S463.43,196.27,461.71,198.31Z" transform="translate(-5.59 -133.73)"/><path class="cls-139" d="M462.38,192.69a4.77,4.77,0,0,0-5.19,1.7,4.69,4.69,0,0,0-.67,5.63,4.76,4.76,0,0,0,5.19-1.71C463.22,196.52,463.45,194.17,462.38,192.69Z" transform="translate(-5.59 -133.73)"/><path class="cls-140" d="M477.27,223.18c1.47-4.52,5.61-7.23,9.24-6.05s5.39,5.81,3.92,10.33-5.61,7.24-9.24,6.06S475.8,227.71,477.27,223.18Z" transform="translate(-5.59 -133.73)"/><path class="cls-141" d="M479.93,232.92c3.1,0,6.2-2.51,7.43-6.29,1.29-4,.1-8-2.65-9.74-3.11,0-6.21,2.51-7.44,6.29C476,227.15,477.17,231.19,479.93,232.92Z" transform="translate(-5.59 -133.73)"/><path class="cls-142" d="M454.53,225.26c-.64,5.15-4.51,8.9-8.64,8.39s-7-5.1-6.32-10.24,4.5-8.9,8.63-8.38S455.16,220.12,454.53,225.26Z" transform="translate(-5.59 -133.73)"/><path class="cls-143" d="M449.67,215.4c-3.31.67-6.11,4-6.65,8.27-.55,4.5,1.55,8.58,4.86,9.86,3.31-.67,6.11-4,6.65-8.27C455.08,220.76,453,216.68,449.67,215.4Z" transform="translate(-5.59 -133.73)"/><path class="cls-144" d="M453.1,172.36c-2.55,2-5.59,2.45-6.79.94s-.11-4.37,2.45-6.4,5.59-2.46,6.79-1S455.65,170.33,453.1,172.36Z" transform="translate(-5.59 -133.73)"/><path class="cls-145" d="M455.89,166.57c-1.46-.74-3.92-.18-6.05,1.51s-3.36,4.2-2.8,5.79c1.46.74,3.92.19,6.06-1.51S456.45,168.16,455.89,166.57Z" transform="translate(-5.59 -133.73)"/><path class="cls-146" d="M427.68,207.54c-2,4.36-5.76,6.92-8.34,5.72s-3-5.71-1-10.06,5.76-6.92,8.33-5.72S429.71,203.18,427.68,207.54Z" transform="translate(-5.59 -133.73)"/><path class="cls-146" d="M427.68,207.54c-2,4.36-5.76,6.92-8.34,5.72s-3-5.71-1-10.06,5.76-6.92,8.33-5.72S429.71,203.18,427.68,207.54Z" transform="translate(-5.59 -133.73)"/><path class="cls-147" d="M427.55,198.07c-2.41,0-5.29,2.34-7,6-1.78,3.82-1.66,7.75.13,9.47,2.41,0,5.29-2.33,7-6C429.46,203.72,429.34,199.8,427.55,198.07Z" transform="translate(-5.59 -133.73)"/><path class="cls-148" d="M514.57,216.86c1.76-4.47,5.34-7.25,8-6.2s3.35,5.51,1.59,10-5.34,7.25-8,6.21S512.8,221.33,514.57,216.86Z" transform="translate(-5.59 -133.73)"/><path class="cls-149" d="M515.26,226.31c2.41-.13,5.15-2.65,6.62-6.39,1.55-3.92,1.2-7.83-.69-9.44-2.41.12-5.14,2.64-6.62,6.38C513,220.78,513.38,224.69,515.26,226.31Z" transform="translate(-5.59 -133.73)"/><g class="cls-25"><path class="cls-150" d="M490,253c2.45-2.74,5.76-3.79,7.38-2.33s.93,4.85-1.52,7.59-5.77,3.78-7.38,2.32S487.49,255.74,490,253Z" transform="translate(-5.59 -133.73)"/><path class="cls-150" d="M490,253c2.45-2.74,5.76-3.79,7.38-2.33s.93,4.85-1.52,7.59-5.77,3.78-7.38,2.32S487.49,255.74,490,253Z" transform="translate(-5.59 -133.73)"/><path class="cls-151" d="M487.93,260c1.76.55,4.39-.53,6.45-2.82s2.94-5.31,2-7c-1.76-.55-4.4.54-6.45,2.83S487,258.31,487.93,260Z" transform="translate(-5.59 -133.73)"/></g><path class="cls-152" d="M500.53,226.36c1.94-2.17,4.55-3,5.83-1.85s.75,3.84-1.2,6-4.56,3-5.84,1.84S498.58,228.52,500.53,226.36Z" transform="translate(-5.59 -133.73)"/><path class="cls-153" d="M498.93,231.87c1.39.43,3.48-.43,5.1-2.24s2.33-4.19,1.6-5.51c-1.39-.43-3.48.42-5.1,2.24S498.2,230.55,498.93,231.87Z" transform="translate(-5.59 -133.73)"/><path class="cls-154" d="M495.48,180c-4.39-5.19-5.46-11.49-2.4-14.09s9.11-.49,13.5,4.7,5.46,11.49,2.4,14.08S499.87,185.23,495.48,180Z" transform="translate(-5.59 -133.73)"/><path class="cls-154" d="M495.48,180c-4.39-5.19-5.46-11.49-2.4-14.09s9.11-.49,13.5,4.7,5.46,11.49,2.4,14.08S499.87,185.23,495.48,180Z" transform="translate(-5.59 -133.73)"/><path class="cls-155" d="M507.71,185.48c1.45-3.08.14-8.17-3.53-12.51-3.85-4.54-9-6.72-12.23-5.44-1.45,3.08-.14,8.17,3.53,12.51C499.33,184.58,504.44,186.76,507.71,185.48Z" transform="translate(-5.59 -133.73)"/><path class="cls-156" d="M482.46,165.7c-2.59-1.32-4.06-3.63-3.28-5.17s3.52-1.7,6.11-.38,4.06,3.64,3.28,5.17S485.05,167,482.46,165.7Z" transform="translate(-5.59 -133.73)"/><path class="cls-157" d="M488.2,165.83c.06-1.46-1.3-3.25-3.47-4.36s-4.66-1.17-5.74-.12c-.06,1.45,1.3,3.25,3.47,4.35S487.11,166.88,488.2,165.83Z" transform="translate(-5.59 -133.73)"/><path class="cls-158" d="M426.58,239.32c1.78,2.3,2.13,5,.77,6.08s-3.91,0-5.69-2.26-2.14-5-.78-6.07S424.79,237,426.58,239.32Z" transform="translate(-5.59 -133.73)"/><path class="cls-158" d="M426.58,239.32c1.78,2.3,2.13,5,.77,6.08s-3.91,0-5.69-2.26-2.14-5-.78-6.07S424.79,237,426.58,239.32Z" transform="translate(-5.59 -133.73)"/><path class="cls-159" d="M421.44,236.77c-.68,1.29-.21,3.5,1.29,5.42s3.71,3,5.13,2.55c.68-1.29.21-3.49-1.28-5.42S422.86,236.28,421.44,236.77Z" transform="translate(-5.59 -133.73)"/><path class="cls-160" d="M506.46,238.74c4.31-4.78,10.1-6.58,12.92-4s1.62,8.49-2.7,13.26-10.1,6.59-12.93,4S502.14,243.52,506.46,238.74Z" transform="translate(-5.59 -133.73)"/><path class="cls-161" d="M502.89,250.91c3.07,1,7.69-.9,11.3-4.9,3.78-4.18,5.18-9.26,3.57-12.17-3.08-1-7.69.9-11.3,4.9C502.67,242.93,501.28,248,502.89,250.91Z" transform="translate(-5.59 -133.73)"/><path class="cls-162" d="M516.67,198.77a2,2,0,1,1-1.19-2.57A2,2,0,0,1,516.67,198.77Z" transform="translate(-5.59 -133.73)"/><path class="cls-163" d="M511.53,208.64a1.29,1.29,0,1,1-2.42-.89,1.27,1.27,0,0,1,1.65-.76A1.29,1.29,0,0,1,511.53,208.64Z" transform="translate(-5.59 -133.73)"/><path class="cls-164" d="M424.92,225a2.29,2.29,0,1,1-1.36-2.94A2.3,2.3,0,0,1,424.92,225Z" transform="translate(-5.59 -133.73)"/><path class="cls-165" d="M434.37,209.22a1.72,1.72,0,1,1-1-2.21A1.72,1.72,0,0,1,434.37,209.22Z" transform="translate(-5.59 -133.73)"/><path class="cls-166" d="M448.06,249.35a6.59,6.59,0,1,1-3.92-8.46A6.59,6.59,0,0,1,448.06,249.35Z" transform="translate(-5.59 -133.73)"/><path class="cls-167" d="M459.42,240.84a2.43,2.43,0,1,1-1.45-3.13A2.43,2.43,0,0,1,459.42,240.84Z" transform="translate(-5.59 -133.73)"/><path class="cls-168" d="M456.7,249.92a1.86,1.86,0,1,1-1.1-2.39A1.86,1.86,0,0,1,456.7,249.92Z" transform="translate(-5.59 -133.73)"/><path class="cls-169" d="M413.4,220.61a1.86,1.86,0,1,1-1.11-2.39A1.86,1.86,0,0,1,413.4,220.61Z" transform="translate(-5.59 -133.73)"/><path class="cls-170" d="M440.18,196.69a1.43,1.43,0,1,1-.85-1.84A1.43,1.43,0,0,1,440.18,196.69Z" transform="translate(-5.59 -133.73)"/><path class="cls-171" d="M471,171a4,4,0,1,1-2.39-5.15A4,4,0,0,1,471,171Z" transform="translate(-5.59 -133.73)"/><path class="cls-172" d="M455.26,183.89a1.72,1.72,0,1,1-3.23-1.18,1.72,1.72,0,0,1,3.23,1.18Z" transform="translate(-5.59 -133.73)"/><path class="cls-173" d="M466.46,160.82a2,2,0,1,1-1.19-2.57A2,2,0,0,1,466.46,160.82Z" transform="translate(-5.59 -133.73)"/><path class="cls-174" d="M450,161.52a1.43,1.43,0,1,1-.85-1.84A1.43,1.43,0,0,1,450,161.52Z" transform="translate(-5.59 -133.73)"/><path class="cls-175" d="M491.37,182a5.88,5.88,0,1,1-3.5-7.54A5.89,5.89,0,0,1,491.37,182Z" transform="translate(-5.59 -133.73)"/><path class="cls-176" d="M473.24,192.32a2.3,2.3,0,1,1-1.37-2.95A2.29,2.29,0,0,1,473.24,192.32Z" transform="translate(-5.59 -133.73)"/><path class="cls-177" d="M517.66,185.24a1.86,1.86,0,1,1-1.1-2.39A1.86,1.86,0,0,1,517.66,185.24Z" transform="translate(-5.59 -133.73)"/><path class="cls-178" d="M504.06,208.19a2.58,2.58,0,1,1-1.53-3.31A2.58,2.58,0,0,1,504.06,208.19Z" transform="translate(-5.59 -133.73)"/><path class="cls-179" d="M499.58,218.76a2.31,2.31,0,0,1-2.95,1.37,2.3,2.3,0,1,1,2.95-1.37Z" transform="translate(-5.59 -133.73)"/><path class="cls-180" d="M469.56,230.67a2,2,0,1,1-1.19-2.58A2,2,0,0,1,469.56,230.67Z" transform="translate(-5.59 -133.73)"/><path class="cls-181" d="M493.94,239.14a2.15,2.15,0,1,1-1.28-2.76A2.15,2.15,0,0,1,493.94,239.14Z" transform="translate(-5.59 -133.73)"/><path class="cls-182" d="M490.91,246.58a1.86,1.86,0,1,1-1.11-2.39A1.87,1.87,0,0,1,490.91,246.58Z" transform="translate(-5.59 -133.73)"/><path class="cls-183" d="M484.49,265.76a3.73,3.73,0,1,1-2.22-4.79A3.72,3.72,0,0,1,484.49,265.76Z" transform="translate(-5.59 -133.73)"/><path class="cls-184" d="M491,268.12a1.15,1.15,0,1,1-.68-1.47A1.15,1.15,0,0,1,491,268.12Z" transform="translate(-5.59 -133.73)"/><path class="cls-185" d="M504.1,260.58a1,1,0,1,1-.6-1.29A1,1,0,0,1,504.1,260.58Z" transform="translate(-5.59 -133.73)"/><path class="cls-186" d="M525.36,230.05a1.43,1.43,0,1,1-.85-1.84A1.43,1.43,0,0,1,525.36,230.05Z" transform="translate(-5.59 -133.73)"/><path class="cls-187" d="M527.66,203a1,1,0,1,1-1.88-.69,1,1,0,0,1,1.28-.6A1,1,0,0,1,527.66,203Z" transform="translate(-5.59 -133.73)"/><path class="cls-188" d="M502.25,212.65a36.52,36.52,0,1,1-21.72-46.86A36.51,36.51,0,0,1,502.25,212.65Z" transform="translate(-5.59 -133.73)"/></g></g></svg>