<svg xmlns="http://www.w3.org/2000/svg" xmlns:xlink="http://www.w3.org/1999/xlink" viewBox="0 0 704.98 719.36"><defs><style>.cls-1{isolation:isolate;}.cls-2{fill:url(#radial-gradient);}.cls-3{opacity:0.48;}.cls-3,.cls-5,.cls-9{mix-blend-mode:screen;}.cls-4,.cls-5,.cls-9{fill:#7f3d97;}.cls-6,.cls-8{opacity:0.5;mix-blend-mode:multiply;}.cls-7{fill:#7b2a90;}.cls-8{fill:url(#radial-gradient-2);}.cls-9{opacity:0.2;}.cls-10{fill:url(#radial-gradient-3);}</style><radialGradient id="radial-gradient" cx="357.42" cy="246.27" r="819.34" gradientUnits="userSpaceOnUse"><stop offset="0.02" stop-color="#7f3d97"/><stop offset="0.37" stop-color="#7c3b94"/><stop offset="0.66" stop-color="#72368c"/><stop offset="0.93" stop-color="#612c7e"/><stop offset="1" stop-color="#5b2979"/><stop offset="1" stop-color="#5e2a7b"/></radialGradient><radialGradient id="radial-gradient-2" cx="641.62" cy="567.73" r="780.58" xlink:href="#radial-gradient"/><radialGradient id="radial-gradient-3" cx="555.01" cy="558.74" r="285.36" xlink:href="#radial-gradient"/></defs><title>planet-2</title><g class="cls-1"><g id="Layer_1" data-name="Layer 1"><path class="cls-2" d="M877.86,579.77c1.1-11.23,1.69-22.6,1.69-34.12a344.55,344.55,0,0,0-77.77-218.51c9.38-12.26,1.18-37.51-19.31-57.94-21.42-21.36-48.12-29.33-59.62-17.79a16.13,16.13,0,0,0-2.38,3.14,344.26,344.26,0,0,0-186.94-54.91c-2.76,0-5.48.14-8.23.2-6.82-16.31-42.21-23.88-82.49-17-42.9,7.38-75.09,28.42-71.89,47a16.79,16.79,0,0,0,4.18,8.19c-111.38,57.49-187.59,173.6-187.59,307.58a344.39,344.39,0,0,0,50.42,179.93,23.59,23.59,0,0,0-2.79,2.31c-16.54,16.6-5,55,25.85,85.71s69.23,42.2,85.78,25.6c.47-.47.84-1,1.26-1.52a345.53,345.53,0,0,0,261.23,45.58c6.87,14.62,34,20.6,63.42,13.31,31.46-7.81,53.55-27.88,49.34-44.82a19.89,19.89,0,0,0-7.74-11,346.91,346.91,0,0,0,147.61-186,11.2,11.2,0,0,0,2.15.82c11.28,2,23.51-13.26,27.31-34.21S889.11,581.84,877.86,579.77Z" transform="translate(-187.51 -180.32)"/><g class="cls-3"><path class="cls-4" d="M819.21,352.5c2.78,3.4,5.48,6.88,8.13,10.39q-3.65-5.85-7.53-11.53C819.58,351.71,819.47,352.16,819.21,352.5Z" transform="translate(-187.51 -180.32)"/><path class="cls-4" d="M254.11,806.19c-11.06-21.5-12.47-42-1.53-52.94a23.49,23.49,0,0,1,2.78-2.31A344.41,344.41,0,0,1,205,571c0-134,76.2-250.1,187.58-307.59a16.8,16.8,0,0,1-4.18-8.18c-3.19-18.57,29-39.61,71.9-47,40.27-6.93,75.66.64,82.49,16.95,2.74-.06,5.46-.21,8.22-.21a344.33,344.33,0,0,1,186.95,54.92,16.2,16.2,0,0,1,2.38-3.15c11.5-11.53,38.19-3.56,59.61,17.8.45.45.81.93,1.25,1.38a88.52,88.52,0,0,0-18.68-26.74c-21.42-21.36-48.12-29.33-59.62-17.79a16.13,16.13,0,0,0-2.38,3.14,344.26,344.26,0,0,0-186.94-54.91c-2.76,0-5.48.14-8.23.2-6.82-16.31-42.21-23.88-82.49-17-42.9,7.38-75.09,28.42-71.89,47a16.79,16.79,0,0,0,4.18,8.19c-111.38,57.49-187.59,173.6-187.59,307.58a344.39,344.39,0,0,0,50.42,179.93,23.59,23.59,0,0,0-2.79,2.31C219.9,743.18,228.56,776.93,254.11,806.19Z" transform="translate(-187.51 -180.32)"/></g><path class="cls-5" d="M338.26,293.71c13.66,6.75,12.7,36.58-2.14,66.63s-37.95,49-51.61,42.21-12.7-36.58,2.14-66.63S324.59,287,338.26,293.71Z" transform="translate(-187.51 -180.32)"/><path class="cls-5" d="M304.93,342.65c11.05-22.39,26.69-38.57,39.6-42.58a14.52,14.52,0,0,0-6.28-6.36c-13.66-6.74-36.76,12.15-51.6,42.21s-15.8,59.88-2.14,66.63c3.49,1.72,7.59,1.75,12,.38C290,391,293,366.89,304.93,342.65Z" transform="translate(-187.51 -180.32)"/><path class="cls-5" d="M249.07,419.35c11.06-1,21.84,17.87,24.08,42.18s-4.89,44.86-15.94,45.88-21.84-17.86-24.08-42.18S238,420.37,249.07,419.35Z" transform="translate(-187.51 -180.32)"/><path class="cls-5" d="M247,462.44c-1.67-18.12,1.87-34.12,8.35-41.54a10.7,10.7,0,0,0-6.32-1.55c-11,1-18.19,21.56-15.94,45.88s13,43.2,24.08,42.18a11.61,11.61,0,0,0,7.59-4.34C256.22,498.12,248.85,482.06,247,462.44Z" transform="translate(-187.51 -180.32)"/><path class="cls-5" d="M794.47,492.26c-10.68,3.05-24.77-13.5-31.49-37s-3.51-45,7.16-48,24.77,13.5,31.48,37S805.14,489.2,794.47,492.26Z" transform="translate(-187.51 -180.32)"/><path class="cls-5" d="M788.47,449.54c5,17.49,4.5,33.88-.5,42.37a10.64,10.64,0,0,0,6.5.35c10.67-3.06,13.87-24.56,7.15-48s-20.81-40-31.48-37a11.64,11.64,0,0,0-6.66,5.67C772.83,416.18,783.05,430.6,788.47,449.54Z" transform="translate(-187.51 -180.32)"/><path class="cls-5" d="M510.53,827.91c-1.61-11,16.68-22.75,40.85-26.27s45,2.52,46.65,13.5-16.69,22.75-40.85,26.27S512.13,838.89,510.53,827.91Z" transform="translate(-187.51 -180.32)"/><path class="cls-5" d="M553.66,827.67c-18,2.62-34.17-.07-41.92-6.15a10.64,10.64,0,0,0-1.21,6.39c1.6,11,22.49,17,46.65,13.5s42.45-15.29,40.85-26.27a11.64,11.64,0,0,0-4.73-7.36C588.81,816.62,573.15,824.82,553.66,827.67Z" transform="translate(-187.51 -180.32)"/><path class="cls-5" d="M251.13,738c10.07-9.84,35.78.15,57.42,22.3s31,48.09,20.95,57.93-35.78-.15-57.42-22.31S241.06,747.87,251.13,738Z" transform="translate(-187.51 -180.32)"/><path class="cls-5" d="M283.56,782.1c-16.12-16.51-25.43-35.1-25-47.58a13.43,13.43,0,0,0-7.47,3.52c-10.07,9.83-.69,35.77,20.95,57.92s47.35,32.14,57.42,22.31c2.57-2.51,3.86-6.08,4-10.35C321.11,809.91,301,800,283.56,782.1Z" transform="translate(-187.51 -180.32)"/><path class="cls-5" d="M791.12,314.53c-6.21,6.71-23.22,1.07-38-12.6s-21.69-30.19-15.48-36.9,23.22-1.07,38,12.6S797.34,307.82,791.12,314.53Z" transform="translate(-187.51 -180.32)"/><path class="cls-5" d="M768.65,287c11,10.18,17.64,21.94,17.74,30.06a8.73,8.73,0,0,0,4.73-2.53c6.22-6.71-.72-23.23-15.48-36.9s-31.77-19.31-38-12.6a9.61,9.61,0,0,0-2.27,6.84C743.38,270.18,756.74,276,768.65,287Z" transform="translate(-187.51 -180.32)"/><path class="cls-5" d="M633.46,881.34c-3.46-8.46,8.84-21.49,27.47-29.1s36.53-6.9,40,1.57-8.84,21.49-27.47,29.1S636.92,889.81,633.46,881.34Z" transform="translate(-187.51 -180.32)"/><path class="cls-5" d="M667.91,872.61c-13.88,5.66-27.34,6.71-34.74,3.38a8.72,8.72,0,0,0,.29,5.35c3.46,8.47,21.36,9.17,40,1.57s30.93-20.64,27.47-29.1a9.57,9.57,0,0,0-5.24-4.95C693.84,856.81,682.94,866.47,667.91,872.61Z" transform="translate(-187.51 -180.32)"/><path class="cls-5" d="M867,643c-6.6-.47-11.13-12.62-10.11-27.14s7.2-25.92,13.8-25.45S881.8,603,880.79,617.55,873.59,643.47,867,643Z" transform="translate(-187.51 -180.32)"/><path class="cls-5" d="M872.33,617.85c-.76,10.82-4.38,19.9-8.91,23.63A6.31,6.31,0,0,0,867,643c6.6.46,12.78-10.94,13.8-25.46s-3.51-26.67-10.11-27.13a6.92,6.92,0,0,0-4.89,1.82C870.37,596,873.15,606.14,872.33,617.85Z" transform="translate(-187.51 -180.32)"/><ellipse class="cls-5" cx="447.14" cy="214.18" rx="49.13" ry="22.33" transform="translate(-224.29 -73.97) rotate(-13.03)"/><path class="cls-5" d="M447.26,207.33c19.7-4.56,37.85-3.06,47,3a11.72,11.72,0,0,0,.76-7.18c-2.78-12-26.46-16.8-52.89-10.68s-45.61,20.82-42.83,32.83c.71,3.07,2.79,5.65,5.92,7.71C409.36,222.78,425.94,212.26,447.26,207.33Z" transform="translate(-187.51 -180.32)"/><ellipse class="cls-5" cx="353.28" cy="178.3" rx="62.27" ry="52.98"/><path class="cls-5" d="M542.65,331.67c27.76,0,51.26,15.46,59.29,36.81a45.43,45.43,0,0,0,1.12-9.86c0-29.26-27.88-53-62.27-53s-62.28,23.72-62.28,53a45.74,45.74,0,0,0,3,16.17C486.93,350.25,512.22,331.67,542.65,331.67Z" transform="translate(-187.51 -180.32)"/><ellipse class="cls-5" cx="348.55" cy="637.82" rx="39.84" ry="46.83" transform="translate(-393.45 -12.44) rotate(-21.06)"/><path class="cls-5" d="M329.13,643.8c-7.5-19.48-3-40.15,9.81-51.56a33.84,33.84,0,0,0-7.22,1.88c-20.54,7.91-29.65,33.88-20.35,58s33.48,37.29,54,29.39a34.63,34.63,0,0,0,10.55-6.46C357.23,677.89,337.36,665.16,329.13,643.8Z" transform="translate(-187.51 -180.32)"/><path class="cls-5" d="M547.88,663.19c-14.65-17.08-10.25-44.88,9.83-62.1s48.22-17.33,62.87-.25,10.24,44.88-9.83,62.1S562.53,680.27,547.88,663.19Z" transform="translate(-187.51 -180.32)"/><path class="cls-5" d="M596.64,648.68c-16.21,13.9-37.66,16.63-53,8.19a34.8,34.8,0,0,0,4.28,6.32c14.65,17.08,42.8,17,62.87-.25s24.47-45,9.83-62.1a35.43,35.43,0,0,0-9.83-8C619.86,609.94,614.4,633.45,596.64,648.68Z" transform="translate(-187.51 -180.32)"/><path class="cls-5" d="M668.45,651.11c-7.34-8.56-5.14-22.49,4.92-31.12s24.16-8.68,31.5-.12S710,642.35,700,651,675.79,659.66,668.45,651.11Z" transform="translate(-187.51 -180.32)"/><path class="cls-5" d="M692.88,643.84c-8.12,7-18.87,8.33-26.58,4.1a17.53,17.53,0,0,0,2.15,3.17c7.34,8.55,21.44,8.5,31.5-.13s12.26-22.56,4.92-31.11a17.52,17.52,0,0,0-4.92-4C704.51,624.43,701.78,636.2,692.88,643.84Z" transform="translate(-187.51 -180.32)"/><g class="cls-6"><path class="cls-7" d="M496.08,243c-.15-1.22,7.05-3.5,12.52-8.14a46.79,46.79,0,0,0,9.27-10.45,46.87,46.87,0,0,0,7.36-11.88c2.87-6.57,3-14.12,4.21-14.33s3.49,7.74,1.82,16.06A45.64,45.64,0,0,1,525,229.71a45.82,45.82,0,0,1-13,10.44C504.49,244.12,496.13,244.21,496.08,243Z" transform="translate(-187.51 -180.32)"/><path class="cls-7" d="M424,264c.12,1.22-6.09,2.82-12.54,3.3a85.58,85.58,0,0,1-12.91-.06,84.87,84.87,0,0,1-12.24-4.11c-5.94-2.54-11.3-6.07-10.8-7.18s6.56.27,12.56,1.15S400,258.51,400,258.51s5.76,1.49,11.74,2.55S423.93,262.81,424,264Z" transform="translate(-187.51 -180.32)"/><path class="cls-7" d="M502.49,428.55c.07,1.26-13.94,1.22-26.24-5.56A61.2,61.2,0,0,1,461,411.61a38.64,38.64,0,0,1-9.7-14.54,61.46,61.46,0,0,1-4.63-18.46c-1.53-14,3.82-26.92,5-26.37,1.12.32-1.71,13.19,1.25,25.46a60.07,60.07,0,0,0,5.81,15.85,52.37,52.37,0,0,0,4,6.43,53.83,53.83,0,0,0,4.39,6.17,59.73,59.73,0,0,0,12.4,11.46C489.66,425.05,502.62,427.39,502.49,428.55Z" transform="translate(-187.51 -180.32)"/><path class="cls-7" d="M633.11,364.59c-1.2-.25-1.42-5.18-2.37-9.79a74,74,0,0,0-2.37-8.95,73,73,0,0,0-1.59-9.11c-1.08-4.58-2.94-9.16-1.95-9.89s4.87,2.82,7.7,7.39A45.85,45.85,0,0,1,637,344a46.28,46.28,0,0,1,0,10.71C636.36,360,634.3,364.85,633.11,364.59Z" transform="translate(-187.51 -180.32)"/><path class="cls-7" d="M304.18,502.64c1.22-.43,3.74,7.66.61,15.59a27,27,0,0,1-6.15,9.67,16.17,16.17,0,0,1-9.29,5.32,27.22,27.22,0,0,1-11.46.41c-8.43-1.32-14.12-7.6-13.13-8.43.75-.86,7,2.7,13.66,2.17a23.22,23.22,0,0,0,8.37-1.91,19.15,19.15,0,0,0,3.25-1.81,18.67,18.67,0,0,0,3.2-1.89,22.91,22.91,0,0,0,5.89-6.25C302.93,510.08,303.06,502.85,304.18,502.64Z" transform="translate(-187.51 -180.32)"/><path class="cls-7" d="M324.78,411.18c-.93-.91,8.45-11.24,16.93-21.94a166.44,166.44,0,0,0,10.75-15.17c2.64-4.27,4.14-7.21,4.14-7.21s1.8-2.77,4-7.19a81.4,81.4,0,0,0,6.39-17,68.27,68.27,0,0,0,2-18.16c-.14-5.06-.73-8.49-.09-8.68s2.27,3,3.51,8.22a56.61,56.61,0,0,1,.79,19.75A78.41,78.41,0,0,1,368.1,363a83.54,83.54,0,0,1-3.8,8.24s-1.87,3.11-5.09,7.42a138,138,0,0,1-12.8,14.71C336.43,403.35,325.59,412,324.78,411.18Z" transform="translate(-187.51 -180.32)"/><path class="cls-7" d="M361.31,566.83c-.71,1-7.93-2.42-15.52-2.77A49.42,49.42,0,0,0,331,565.52a49,49,0,0,0-14.24,4.09c-6.93,3.13-12.37,9-13.4,8.32s2.9-8.43,10.12-13.67a48.27,48.27,0,0,1,15.86-7.46,48.14,48.14,0,0,1,17.48,1.08C355.5,560.07,362.09,565.9,361.31,566.83Z" transform="translate(-187.51 -180.32)"/><path class="cls-7" d="M398.65,682.62c-.84-.9,5.52-8.67,8.52-17.86A65,65,0,0,0,410,652c.39-3.52.45-5.87.45-5.87s.3-2.33.46-5.88a65.51,65.51,0,0,0-.87-13c-1.55-9.55-6.64-18.2-5.67-19s8.28,7,11.73,17.34a63.58,63.58,0,0,1,3.2,21.23,63.76,63.76,0,0,1-6.42,20.48C407.91,677,399.4,683.57,398.65,682.62Z" transform="translate(-187.51 -180.32)"/><path class="cls-7" d="M310.62,736.62c-1,.72-7.27-5.71-14.95-9.68a66.89,66.89,0,0,0-15.9-5.92,67.37,67.37,0,0,0-16.61-3.48c-8.62-.73-17.35,1.36-17.81.21s8-5.56,17.67-6.49a62.56,62.56,0,0,1,19.22,1.24,62.24,62.24,0,0,1,16.9,9.2C306.84,727.65,311.64,736,310.62,736.62Z" transform="translate(-187.51 -180.32)"/><path class="cls-7" d="M366.57,833.25c-1.19-.33.3-10.68-1.7-20.58A73.5,73.5,0,0,0,361,799.54c-1.42-3.43-2.53-5.63-2.53-5.63s-.9-2.29-2.52-5.63a73.86,73.86,0,0,0-7.23-11.63c-6.07-8.08-14.79-13.85-14.25-15s10.83,2.89,18.89,10.73a70,70,0,0,1,13.2,17.86A70.16,70.16,0,0,1,371.11,812C371.6,823.24,367.7,833.65,366.57,833.25Z" transform="translate(-187.51 -180.32)"/><path class="cls-7" d="M527.73,677.88c-.22.49-3,0-6.4-2.41s-7.09-6.84-9.39-11.9a53.77,53.77,0,0,1-4.12-14.51,59,59,0,0,1-.6-6.81,103.57,103.57,0,0,1,3.56-21c2.82-10.27,7.92-19.52,9-19s-1.78,10.3-2.88,20.27a126.66,126.66,0,0,0-.84,19.8,59.17,59.17,0,0,0,1.72,19,32,32,0,0,0,5.85,11.58C525.94,675.74,528,677.28,527.73,677.88Z" transform="translate(-187.51 -180.32)"/><path class="cls-7" d="M624.89,561.39c-.15,1.22-6.4,1.64-12.4,2.68s-11.78,2.55-11.78,2.55-6,.51-12,1.64-12,2.81-12.58,1.71,4.68-4.93,10.64-7.68a76.56,76.56,0,0,1,12.35-4.41,77.27,77.27,0,0,1,13.11-.08C618.82,558.35,625.05,560.18,624.89,561.39Z" transform="translate(-187.51 -180.32)"/><path class="cls-7" d="M753.52,472.66c-1,.7-8-7.92-12.33-18.23a93.4,93.4,0,0,1-6.34-21.4,91.08,91.08,0,0,1,1.22-22.35c1-5.58,3.31-11.19,6.39-14.46s6.09-4,6.29-3.54-1.81,2.23-3.47,5.53-2.8,8.17-3,13.25A105.89,105.89,0,0,0,743.66,432a107.65,107.65,0,0,0,3.44,20.34C749.67,462.46,754.55,472,753.52,472.66Z" transform="translate(-187.51 -180.32)"/><path class="cls-7" d="M802,520.16c0,1.21-4.72,2.12-9.56,1.83a46,46,0,0,1-9.52-1.63,45.82,45.82,0,0,1-8-5.5c-3.66-3.17-6.38-7.1-5.55-8s4.83,1.16,8.84,2.65,8,2.62,8,2.62,3.6,2,7.55,3.73S802.08,518.93,802,520.16Z" transform="translate(-187.51 -180.32)"/><path class="cls-7" d="M734.74,318.68c-.36,1.16-8-.39-14.71-4.42a57.52,57.52,0,0,1-12.17-9.82,57.69,57.69,0,0,1-7.09-13.95c-2.55-7.44-2.49-15.19-1.29-15.3s3.36,6.78,7,12.72a67.53,67.53,0,0,0,8.27,10.94,67.29,67.29,0,0,0,9,10.35C728.8,314,735.13,317.52,734.74,318.68Z" transform="translate(-187.51 -180.32)"/><path class="cls-7" d="M804,340.09c.58,1.06-2.26,3.73-6,5.24a14.15,14.15,0,0,1-15.21-.78c-3.52-1.89-6.07-4.83-5.39-5.84s4.05-.25,7.22-.17a40.21,40.21,0,0,0,6.12-.24,40.26,40.26,0,0,0,6.07.87C800,339.42,803.38,339,804,340.09Z" transform="translate(-187.51 -180.32)"/><path class="cls-7" d="M529,783.89c.34,1.23-8.36,4.4-16.07,8.73a65.17,65.17,0,0,0-9.87,6.64,45.15,45.15,0,0,0-3.88,3.53,37.28,37.28,0,0,0-3.8,3.46,38.34,38.34,0,0,0-6.66,9.29,34.46,34.46,0,0,0-3.41,11.12c-.42,3.24-.32,5.56-1,5.73s-1.84-2-2.5-5.61a29.6,29.6,0,0,1,1-13.52,42.12,42.12,0,0,1,10.36-17.07,47.47,47.47,0,0,1,5.07-3.6,60.42,60.42,0,0,1,12.07-5.71C519.49,783.73,528.76,782.76,529,783.89Z" transform="translate(-187.51 -180.32)"/><path class="cls-7" d="M623.67,795.67c-1.14.43-3.7-2.63-6.79-4.54a29.13,29.13,0,0,0-6.34-3,28.83,28.83,0,0,0-6.2-3.3c-3.37-1.35-7.35-1.59-7.69-2.76s3.76-3.35,8.56-3.45a16.06,16.06,0,0,1,16.15,8.14C624.13,790.66,624.82,795.28,623.67,795.67Z" transform="translate(-187.51 -180.32)"/><path class="cls-7" d="M641.06,848.35c.65,1-3.95,5.1-8.21,9.18a104.35,104.35,0,0,0-7.89,8.35,46.15,46.15,0,0,0-7.62,7.91c-3.4,4.34-4.76,10.05-6,10.05s-2.15-6.63.45-13a40.31,40.31,0,0,1,6.86-11.24,66.19,66.19,0,0,1,10.51-7.18C634.66,849.46,640.43,847.32,641.06,848.35Z" transform="translate(-187.51 -180.32)"/><path class="cls-7" d="M712.89,833.31c-1,.71-5.08-2.47-9.74-3.43a77,77,0,0,0-18.37.12c-4.65,1-8.69,4.26-9.69,3.57s1.74-6.13,7.17-9.31a20.39,20.39,0,0,1,23.34-.16C711.07,827.2,713.93,832.67,712.89,833.31Z" transform="translate(-187.51 -180.32)"/><path class="cls-7" d="M849.92,609.34c-1.2-.17-1.44-5.54-.25-10.87a49.94,49.94,0,0,1,3.57-10.28,49.71,49.71,0,0,1,7.46-7.93c4.17-3.52,9-5.8,9.75-4.81s-2.52,4.86-5.06,9a81,81,0,0,0-4.56,8.36,80.5,80.5,0,0,0-5.29,7.91C853.07,604.85,851.14,609.53,849.92,609.34Z" transform="translate(-187.51 -180.32)"/><path class="cls-7" d="M860,658c-.62,1.06-3.77.44-6.64-1.06a26.61,26.61,0,0,1-5.3-3.68,27.16,27.16,0,0,1-2.46-6c-.84-3.14-.76-6.35.4-6.72s3.11,1.82,5.08,3.65,3.9,3.47,3.9,3.47,1.14,2.24,2.55,4.56S860.62,656.93,860,658Z" transform="translate(-187.51 -180.32)"/><path class="cls-7" d="M715.57,607.85c-1.12.24-3.86-5-8.6-7.6a23.1,23.1,0,0,0-9.67-3.3,29.73,29.73,0,0,0-10.53-1.17c-5.6.24-11.33,2.27-11.94,1.2s4.27-5.26,10.68-7.34A31,31,0,0,1,694.7,588a27.25,27.25,0,0,1,4.4.22A26.64,26.64,0,0,1,711,595.47C716.11,600.57,716.87,607.74,715.57,607.85Z" transform="translate(-187.51 -180.32)"/><path class="cls-7" d="M705.82,677.39c.83.94-4.91,6.37-12.76,8a31.75,31.75,0,0,1-10.87.54,29.31,29.31,0,0,1-5-1,28.93,28.93,0,0,1-4.47-2.44,31.57,31.57,0,0,1-8-7.42c-5-6.3-5.85-14.16-4.61-14.34s4.1,6,9.21,10.08a44.49,44.49,0,0,0,22.91,8.36C698.78,679.37,705.13,676.43,705.82,677.39Z" transform="translate(-187.51 -180.32)"/></g><path class="cls-8" d="M877.86,579.77c1.1-11.23,1.69-22.6,1.69-34.12a344.55,344.55,0,0,0-77.77-218.51c9.38-12.26,1.18-37.51-19.31-57.94-14.36-14.31-31.06-22.57-44-23a305.47,305.47,0,0,1,47.8,164.26c0,172.21-142.6,311.82-318.5,311.82-120.88,0-226-65.94-280-163.07a344.13,344.13,0,0,0,50.14,166.39,23.59,23.59,0,0,0-2.79,2.31c-16.54,16.6-5,55,25.85,85.71s69.23,42.2,85.78,25.6c.47-.47.84-1,1.26-1.52a345.53,345.53,0,0,0,261.23,45.58c6.87,14.62,34,20.6,63.42,13.31,31.46-7.81,53.55-27.88,49.34-44.82a19.89,19.89,0,0,0-7.74-11,346.91,346.91,0,0,0,147.61-186,11.2,11.2,0,0,0,2.15.82c11.28,2,23.51-13.26,27.31-34.21S889.11,581.84,877.86,579.77Z" transform="translate(-187.51 -180.32)"/><ellipse class="cls-9" cx="301.94" cy="268.05" rx="208.95" ry="208.06"/><path class="cls-10" d="M509.44,520.76a11.39,11.39,0,1,1-11.39-11.39A11.39,11.39,0,0,1,509.44,520.76Zm48.61,5.32a13.67,13.67,0,1,0,13.67,13.67A13.67,13.67,0,0,0,558.05,526.08ZM697.79,386.34A18.23,18.23,0,1,0,716,404.57,18.23,18.23,0,0,0,697.79,386.34Zm-7.6,88.1a9.11,9.11,0,1,0,9.11,9.11A9.11,9.11,0,0,0,690.19,474.44Zm51.64,50.12a7.6,7.6,0,1,0,7.6,7.6A7.59,7.59,0,0,0,741.83,524.56ZM485.14,734.17a19.75,19.75,0,1,0,19.75,19.74A19.74,19.74,0,0,0,485.14,734.17Zm60,13.67a6.84,6.84,0,1,0,6.83,6.83A6.83,6.83,0,0,0,545.14,747.84Zm114.67,13.67a10.63,10.63,0,1,0,10.64,10.63A10.63,10.63,0,0,0,659.81,761.51Zm87.34-41a20.51,20.51,0,1,0,20.5,20.5A20.51,20.51,0,0,0,747.15,720.5Zm-30.38,69.87a6.84,6.84,0,1,0,6.84,6.83A6.83,6.83,0,0,0,716.77,790.37ZM820.06,658.22a9.88,9.88,0,1,0,9.87,9.88A9.88,9.88,0,0,0,820.06,658.22ZM451,834.42a9.87,9.87,0,1,0,9.88,9.87A9.87,9.87,0,0,0,451,834.42ZM292.24,624.81A12.15,12.15,0,1,0,304.39,637,12.15,12.15,0,0,0,292.24,624.81Zm91.89,117A6.84,6.84,0,1,0,391,748.6,6.83,6.83,0,0,0,384.13,741.76ZM409.2,454.69a16.71,16.71,0,1,0,16.7,16.71A16.71,16.71,0,0,0,409.2,454.69Zm31.89,118.48a4.56,4.56,0,1,0,4.56,4.55A4.55,4.55,0,0,0,441.09,573.17Zm16-247.58a8.35,8.35,0,1,0,8.35,8.35A8.35,8.35,0,0,0,457,325.59Zm38-18.23a8.36,8.36,0,1,0,8.36,8.35A8.35,8.35,0,0,0,495,307.36Zm133.67-44.05a25.06,25.06,0,1,0,25.06,25.06A25.06,25.06,0,0,0,628.68,263.31Zm1.51,79a5.32,5.32,0,1,0,5.32,5.32A5.32,5.32,0,0,0,630.19,342.29Z" transform="translate(-187.51 -180.32)"/></g></g></svg>