<svg xmlns="http://www.w3.org/2000/svg" xmlns:xlink="http://www.w3.org/1999/xlink" viewBox="0 0 1080 1080"><defs><style>.cls-1{isolation:isolate;}.cls-2{fill:url(#radial-gradient);}.cls-21,.cls-22,.cls-3{opacity:0.5;}.cls-3{fill:url(#radial-gradient-2);}.cls-4{fill:url(#radial-gradient-3);}.cls-5{fill:url(#radial-gradient-4);}.cls-6{fill:url(#radial-gradient-5);}.cls-7{fill:url(#radial-gradient-6);}.cls-8{fill:url(#radial-gradient-7);}.cls-9{fill:url(#radial-gradient-8);}.cls-10{fill:url(#radial-gradient-9);}.cls-11{fill:url(#radial-gradient-10);}.cls-12{fill:url(#radial-gradient-11);}.cls-13{fill:url(#radial-gradient-12);}.cls-14{fill:url(#radial-gradient-13);}.cls-15{fill:url(#radial-gradient-14);}.cls-16{fill:url(#radial-gradient-15);}.cls-17{fill:url(#radial-gradient-16);}.cls-18{fill:url(#radial-gradient-17);}.cls-19{fill:url(#radial-gradient-18);}.cls-20{fill:url(#radial-gradient-19);}.cls-21,.cls-22{mix-blend-mode:multiply;}.cls-21{fill:url(#radial-gradient-20);}.cls-22{fill:url(#radial-gradient-21);}.cls-23{opacity:0.3;mix-blend-mode:screen;fill:url(#radial-gradient-22);}</style><radialGradient id="radial-gradient" cx="386.86" cy="210.08" r="926.6" gradientUnits="userSpaceOnUse"><stop offset="0" stop-color="#cce2ef"/><stop offset="0.34" stop-color="#6eccde"/><stop offset="0.94" stop-color="#7f3d97"/></radialGradient><radialGradient id="radial-gradient-2" cx="512.19" cy="535.21" r="493.9" gradientTransform="translate(540 -223.68) rotate(45)" gradientUnits="userSpaceOnUse"><stop offset="0.06" stop-color="#5488c7"/><stop offset="0.25" stop-color="#5489c7" stop-opacity="0.99"/><stop offset="0.39" stop-color="#568cc8" stop-opacity="0.94"/><stop offset="0.51" stop-color="#5892ca" stop-opacity="0.86"/><stop offset="0.62" stop-color="#5b99cd" stop-opacity="0.75"/><stop offset="0.72" stop-color="#5ea3d0" stop-opacity="0.6"/><stop offset="0.82" stop-color="#63afd4" stop-opacity="0.43"/><stop offset="0.92" stop-color="#68bdd9" stop-opacity="0.22"/><stop offset="1" stop-color="#6eccde" stop-opacity="0"/></radialGradient><radialGradient id="radial-gradient-3" cx="475.73" cy="117.1" r="792.25" xlink:href="#radial-gradient"/><radialGradient id="radial-gradient-4" cx="475.73" cy="117.1" r="792.25" xlink:href="#radial-gradient"/><radialGradient id="radial-gradient-5" cx="475.73" cy="117.1" r="792.25" xlink:href="#radial-gradient"/><radialGradient id="radial-gradient-6" cx="475.74" cy="117.1" r="792.25" xlink:href="#radial-gradient"/><radialGradient id="radial-gradient-7" cx="475.74" cy="117.1" r="792.25" xlink:href="#radial-gradient"/><radialGradient id="radial-gradient-8" cx="475.74" cy="117.1" r="792.25" xlink:href="#radial-gradient"/><radialGradient id="radial-gradient-9" cx="475.74" cy="117.1" r="792.25" xlink:href="#radial-gradient"/><radialGradient id="radial-gradient-10" cx="475.74" cy="117.1" r="792.25" xlink:href="#radial-gradient"/><radialGradient id="radial-gradient-11" cx="475.74" cy="117.1" r="792.25" xlink:href="#radial-gradient"/><radialGradient id="radial-gradient-12" cx="475.74" cy="117.1" r="792.25" xlink:href="#radial-gradient"/><radialGradient id="radial-gradient-13" cx="475.73" cy="117.1" r="792.25" xlink:href="#radial-gradient"/><radialGradient id="radial-gradient-14" cx="475.74" cy="117.1" r="792.25" xlink:href="#radial-gradient"/><radialGradient id="radial-gradient-15" cx="475.74" cy="117.1" r="792.25" xlink:href="#radial-gradient"/><radialGradient id="radial-gradient-16" cx="475.74" cy="117.1" r="792.25" xlink:href="#radial-gradient"/><radialGradient id="radial-gradient-17" cx="475.74" cy="117.1" r="792.25" xlink:href="#radial-gradient"/><radialGradient id="radial-gradient-18" cx="475.74" cy="117.1" r="792.25" xlink:href="#radial-gradient"/><radialGradient id="radial-gradient-19" cx="475.73" cy="117.1" r="792.26" xlink:href="#radial-gradient"/><radialGradient id="radial-gradient-20" cx="404.5" cy="330.93" r="826.71" xlink:href="#radial-gradient"/><radialGradient id="radial-gradient-21" cx="372.67" cy="290.76" r="848.64" xlink:href="#radial-gradient"/><radialGradient id="radial-gradient-22" cx="397.41" cy="181.72" r="775.37" xlink:href="#radial-gradient"/></defs><title>planet-3</title><g class="cls-1"><g id="Layer_1" data-name="Layer 1"><circle class="cls-2" cx="540" cy="540" r="437.87"/><circle class="cls-3" cx="540" cy="540" r="540" transform="translate(-223.68 540) rotate(-45)"/><path class="cls-4" d="M337.77,801.24c1.47-9.25-11.76-17.07-16.58-7-21.13,44.12-2.79,83.84,18.9,124.25,2.75,5.13,5.63,10.31,8.64,15.46A434.51,434.51,0,0,0,418,960.5C377.16,916.42,329,856,337.77,801.24Z" transform="translate(0)"/><path class="cls-5" d="M977,513q-.8-12.33-2.22-24.51c-20-8.65-39.62-17.95-51.67-37.11-18.89-30.06,2.55-45.16,30.76-54.41h0a434.8,434.8,0,0,0-24.58-57.38h0c-43.94,13.84-80.31,48-79.16,97.58,1.35,58.34,66.47,114.66,127.16,126.25v0c.4-7.72.63-15.5.63-23.33,0-8.61-.29-17.16-.81-25.64C977,513.89,977,513.42,977,513Z" transform="translate(0)"/><path class="cls-6" d="M226.91,582.53c55.23-40.35,119.4-53.8,179.33-83.55,12.81-6.36,6-25.45-7-25.76-76.2-1.87-157.58,44.12-211.73,95-29.87,28.06-52.25,59.39-68,94h0q2.63,9,5.62,17.9l.21.62q3,8.87,6.37,17.56C152.8,652.43,186.81,611.84,226.91,582.53Z" transform="translate(0)"/><path class="cls-7" d="M405.85,429c121.46-14,255.8-36.11,364.09,35.44,29.9,19.76,60.32-23.47,37.17-48.17-101.56-108.39-272.56-75-403.25-54-87.37,14-211.08,40.18-294.72,100.05q-3.7,20.64-5.43,41.91c-.14,1.66-.27,3.31-.38,5-.3,4.2-.57,8.41-.74,12.64,37.82-23.13,75.23-45.14,119.76-59.33C282.2,443.43,343.71,436.2,405.85,429Z" transform="translate(0)"/><path class="cls-8" d="M581.82,605.33C469,549.9,331.31,581.05,259,685.53a234.56,234.56,0,0,0-40.85,151.26l0,0c6,6.46,12.14,12.7,18.47,18.79l2.29,2.17a441.29,441.29,0,0,0,64.77,50.78c-21.68-47.06-25.47-103.47-5-148.56C333.94,682.32,419.34,636.78,503,655.13c67.9,14.89,203,122.7,108.28,190.21-28.91,20.6-73.37,22.69-104.78,7.21-13.15-6.49-38.38-23.48-39.1-40.27-1.06-24.81,21.28-10.29,27,4.27,11.92,30.17,64.35,40.09,71.65,0,11-60.2-29.5-115.38-93.68-115.11-63,.26-110.5,56.36-104.14,117.71,13.85,133.58,193.23,165.94,284.17,91C768.8,814.14,699.1,663,581.82,605.33Z" transform="translate(0)"/><path class="cls-9" d="M863.31,522.73c-15.95-8.36-34,12.52-19.9,25.79,29.19,27.4,58.76,54.45,81,88.08,10.73,16.25,19.11,34,27.72,51.58l0-.08c3.49-9.71,6.59-19.6,9.38-29.62.36-1.27.74-2.53,1.09-3.81q1.92-7.17,3.61-14.44c.22-1,.45-1.94.67-2.91,1.17-5.18,2.27-10.39,3.26-15.63v0C941.87,579,900.65,542.3,863.31,522.73Z" transform="translate(0)"/><path class="cls-10" d="M358.94,243.7c98.46,23.44,226.72.15,272.07-101.95a112.05,112.05,0,0,0,8.66-28.09,437.57,437.57,0,0,0-66.95-10.18h0a20.57,20.57,0,0,1,2.64,10.4c.3,27.55-56.44,57.67-76.1,65-25.55,9.57-158.38,21.88-182-15.89q-9.82,5.82-19.32,12.1l-.48.31q-9.63,6.38-18.89,13.27C290.23,221.26,326.72,236,358.94,243.7Z" transform="translate(0)"/><path class="cls-11" d="M780.92,850.26c-3.11-9.92-13.51-16.58-23.92-13.57-26.77,7.73-42.82,42.3-57.88,64.11s-34.78,40.65-48.86,63.05h0c8.7-2.26,17.26-4.85,25.73-7.62,1.72-.56,3.43-1.16,5.14-1.74,7.81-2.67,15.53-5.51,23.13-8.6.56-.22,1.13-.43,1.69-.66a441.93,441.93,0,0,0,51.2-25.07h0C773.05,899.26,788.11,873.25,780.92,850.26Z" transform="translate(0)"/><path class="cls-12" d="M881.26,814.23h0c-.09-3.47-.22-6.93-.4-10.34-3.68-68.86-15-140.5-51.07-200.37-31.16-51.69-77-93.63-131.6-119.3C641.57,457.61,589.05,456,527.72,465.29c-16.4,2.5-11.63,27.53,3.79,28C624.29,496.18,725,557.55,770.88,638,813.26,712.16,817,804.39,804.63,888.8c6.72-5.1,13.25-10.43,19.65-15.91.86-.73,1.7-1.46,2.55-2.2q9-7.83,17.59-16.12c.39-.37.79-.73,1.17-1.11A442,442,0,0,0,881.26,814.23Z" transform="translate(0)"/><path class="cls-13" d="M431,154.27c19.94,28,61,30.9,77.95-.71,9.72-18.1-6.22-36.66-25.37-33A31.25,31.25,0,0,1,500.47,104h0c-6.54.59-13,1.34-19.49,2.21l-1.25.16q-9.57,1.32-19,3.06l-1.15.21q-9.6,1.78-19.07,4l-.51.12q-9.69,2.27-19.21,5A53.68,53.68,0,0,0,431,154.27Z" transform="translate(0)"/><path class="cls-14" d="M152.94,564c23.69-17.14,51.09-31.26,70.84-53.15a11.77,11.77,0,0,0-11.35-19.5c-30.42,6.74-55.79,27.49-79.63,46.55-10,8-20.34,16.15-30.08,25,.67,12.89,2,25.6,3.74,38.18C122.34,589.22,137.05,575.5,152.94,564Z" transform="translate(0)"/><path class="cls-15" d="M188.25,294.38c-4.21.64-8.21,1.28-12.15,2.07A436.18,436.18,0,0,0,140,362a26.52,26.52,0,0,0,19,1.53c17.88-5.39,33.7-11,49.7-20.77,11.19-6.82,16.16-21,10.84-33.08C213.79,296.73,201.71,292.33,188.25,294.38Z" transform="translate(0)"/><path class="cls-16" d="M676.83,631.41c26.58,37.71,32.32,80.22,50.26,121.12,4.28,9.77,22.13,7.64,23.69-3.09C766.28,643,642.71,549.35,549.87,534.9a1.73,1.73,0,0,0-.92,3.33C600.17,555.24,645.59,587.09,676.83,631.41Z" transform="translate(0)"/><path class="cls-17" d="M166.26,755.21c27.26-57.47,63.37-112.61,108.2-157.82,3.46-3.49-.95-9.23-5.24-6.78-62.28,35.45-101.86,91.66-111,162.42a3.31,3.31,0,0,0,.73,2.58l.05.08C160.76,757.77,164.93,758,166.26,755.21Z" transform="translate(0)"/><path class="cls-18" d="M640.56,183.66c-55.47,44.43-118.51,77.86-179.65,113.45-7.41,4.32-3.67,14.71,4.14,15.3,79.59,6,156.47-23.92,220.17-70.87,25.17-18.56,59.09-44,85.43-73.71h0q-8.65-5.37-17.58-10.35l-.36-.2q-9-5-18.23-9.59l-.1-.05q-18.64-9.24-38.24-16.74A492.44,492.44,0,0,1,640.56,183.66Z" transform="translate(0)"/><path class="cls-19" d="M206.74,256.14c12.48,20.83,33.89,36.33,55,47.57,31.43,16.74,58.89,22.4,94.29,18.81,9.06-.92,12.47-14.53,2.3-17-26.46-6.36-56.89-16-81.34-27.93-20.44-9.95-37.9-24.69-57.35-36Q213,248.74,206.74,256.14Z" transform="translate(0)"/><path class="cls-20" d="M831.05,213h0c-31.93,31.21-78.75,45.18-115.86,69-12.44,8-7.24,26.65,7.41,27.37,46.5,2.29,109.64-15.89,152.74-50.8h0q-9.93-11.81-20.66-22.85l-1.08-1.14Q842.71,223.38,831.05,213Z" transform="translate(0)"/><path class="cls-21" d="M858.77,240A437.11,437.11,0,0,1,884.9,389.24c0,241.83-196,437.87-437.87,437.87-125.68,0-238.91-53-318.77-137.84,61,168.33,222.33,288.6,411.74,288.6,241.83,0,437.87-196,437.87-437.87A436.26,436.26,0,0,0,858.77,240Z" transform="translate(0)"/><path class="cls-22" d="M665.84,822.76C424,822.76,228,626.72,228,384.89a436.07,436.07,0,0,1,43.65-190.74C168.53,274.26,102.13,399.34,102.13,540c0,241.83,196,437.87,437.87,437.87,173.45,0,323.32-100.86,394.22-247.13A435.8,435.8,0,0,1,665.84,822.76Z" transform="translate(0)"/><path class="cls-23" d="M503.26,194c241.83,0,437.87,196,437.87,437.86A438.07,438.07,0,0,1,925.5,747.78,435.91,435.91,0,0,0,977.87,540c0-241.83-196-437.87-437.87-437.87-201.68,0-371.4,136.39-422.24,321.93C191.76,287.06,336.63,194,503.26,194Z" transform="translate(0)"/></g></g></svg>