<svg xmlns="http://www.w3.org/2000/svg" xmlns:xlink="http://www.w3.org/1999/xlink" viewBox="0 0 1080 1080"><defs><style>.cls-1{isolation:isolate;}.cls-14,.cls-15,.cls-16,.cls-17,.cls-18,.cls-19,.cls-2,.cls-20,.cls-21,.cls-22,.cls-4,.cls-7,.cls-8{mix-blend-mode:screen;}.cls-2{fill:url(#radial-gradient);}.cls-3{fill:#ed227e;}.cls-14,.cls-15,.cls-16,.cls-17,.cls-18,.cls-19,.cls-20,.cls-21,.cls-4,.cls-5,.cls-7,.cls-8{opacity:0.5;}.cls-4{fill:url(#radial-gradient-2);}.cls-5{fill:url(#radial-gradient-3);}.cls-6{fill:url(#radial-gradient-4);}.cls-7{fill:url(#radial-gradient-5);}.cls-8{fill:url(#radial-gradient-6);}.cls-9{opacity:0.4;mix-blend-mode:multiply;}.cls-10{fill:url(#radial-gradient-7);}.cls-11{fill:url(#radial-gradient-8);}.cls-12{fill:url(#radial-gradient-9);}.cls-13{fill:url(#radial-gradient-10);}.cls-14{fill:url(#radial-gradient-11);}.cls-15{fill:url(#radial-gradient-12);}.cls-16{fill:url(#radial-gradient-13);}.cls-17{fill:url(#radial-gradient-14);}.cls-18{fill:url(#radial-gradient-15);}.cls-19{fill:url(#radial-gradient-16);}.cls-20{fill:url(#radial-gradient-17);}.cls-21{fill:url(#radial-gradient-18);}.cls-22{opacity:0.25;fill:url(#radial-gradient-19);}</style><radialGradient id="radial-gradient" cx="574.57" cy="222.81" r="632.22" gradientTransform="translate(121.97 105.4) rotate(25.54)" gradientUnits="userSpaceOnUse"><stop offset="0.08" stop-color="#f0ad3b"/><stop offset="0.85" stop-color="#f0ad3b" stop-opacity="0"/></radialGradient><radialGradient id="radial-gradient-2" cx="496.02" cy="173.53" r="358.59" gradientTransform="translate(-62.91 528.29) rotate(-19.46)" gradientUnits="userSpaceOnUse"><stop offset="0" stop-color="#6eccde"/><stop offset="0.94" stop-color="#5488c7"/></radialGradient><radialGradient id="radial-gradient-3" cx="551.39" cy="232.05" r="395.1" gradientTransform="translate(-62.91 528.29) rotate(-19.46)" gradientUnits="userSpaceOnUse"><stop offset="0.01" stop-color="#d11c5c"/><stop offset="1" stop-color="#692b7f"/></radialGradient><radialGradient id="radial-gradient-4" cx="818.58" cy="521.74" r="528.27" xlink:href="#radial-gradient-3"/><radialGradient id="radial-gradient-5" cx="568.36" cy="169.25" r="294.06" xlink:href="#radial-gradient-2"/><radialGradient id="radial-gradient-6" cx="563.37" cy="462.85" r="256.29" xlink:href="#radial-gradient-2"/><radialGradient id="radial-gradient-7" cx="559.57" cy="340.95" r="281.09" xlink:href="#radial-gradient-3"/><radialGradient id="radial-gradient-8" cx="561.17" cy="570.05" r="180.96" xlink:href="#radial-gradient-3"/><radialGradient id="radial-gradient-9" cx="577.81" cy="-143.92" r="167.27" xlink:href="#radial-gradient-3"/><radialGradient id="radial-gradient-10" cx="572.22" cy="38.27" r="273.38" xlink:href="#radial-gradient-3"/><radialGradient id="radial-gradient-11" cx="586.55" cy="-71.8" r="212.68" xlink:href="#radial-gradient-2"/><radialGradient id="radial-gradient-12" cx="245.85" cy="220.7" r="61.54" xlink:href="#radial-gradient-2"/><radialGradient id="radial-gradient-13" cx="778.83" cy="278.45" r="124.09" xlink:href="#radial-gradient-2"/><radialGradient id="radial-gradient-14" cx="732.89" cy="-14.84" r="110.17" xlink:href="#radial-gradient-2"/><radialGradient id="radial-gradient-15" cx="608.61" cy="535.95" r="32.68" xlink:href="#radial-gradient-2"/><radialGradient id="radial-gradient-16" cx="359.85" cy="517.91" r="61.12" xlink:href="#radial-gradient-2"/><radialGradient id="radial-gradient-17" cx="419.67" cy="272" r="21.34" xlink:href="#radial-gradient-2"/><radialGradient id="radial-gradient-18" cx="371.76" cy="-37.82" r="60.27" xlink:href="#radial-gradient-2"/><radialGradient id="radial-gradient-19" cx="437.09" cy="166.81" r="226.22" gradientTransform="translate(10.85 314.65)" xlink:href="#radial-gradient-2"/></defs><title>planet-pack</title><g class="cls-1"><g id="Layer_1" data-name="Layer 1"><circle class="cls-2" cx="540" cy="540" r="539.85" transform="translate(-223.68 540) rotate(-45)"/><circle class="cls-3" cx="540" cy="540" r="411.73"/><path class="cls-4" d="M194.65,692.1c-75.77-214.4,36.62-449.62,251-525.39a409.73,409.73,0,0,1,251.19-7.33,410.14,410.14,0,0,0-294-7.59c-214.4,75.77-326.79,311-251,525.39C197.81,807.42,302.71,899.9,426,935.55,321.6,892.48,235.23,807,194.65,692.1Z" transform="translate(0 0)"/><path class="cls-5" d="M730.11,752.8c-199,70.32-417.35-34-487.68-233A380.59,380.59,0,0,1,248.64,249c-108.39,108.67-151.4,273.83-96.85,428.2,75.77,214.4,311,326.79,525.39,251,166.33-58.78,271.19-213.53,274.51-380.07C910.47,640.49,833,716.44,730.11,752.8Z" transform="translate(0 0)"/><path class="cls-6" d="M652.82,144.12a380.51,380.51,0,0,1,102.7,155c70.39,199.17-34,417.68-233.18,488.06C404.41,828.88,279.71,809.26,183,745c96.94,169.26,303.73,250.52,494.19,183.22,214.4-75.77,326.79-311,251-525.39C882,272.17,776.62,179.51,652.82,144.12Z" transform="translate(0 0)"/><path class="cls-7" d="M128.43,554.19a410.09,410.09,0,0,0,4.24,45.87c44.8,17.9,99.18,14.76,146.22,12.58,81.48-3.77,162.28-15.45,241.8-33.46,81.95-18.55,161.6-46.37,238.11-81,56.67-25.66,119.23-55.25,169.51-95.05,0-.1-.07-.2-.1-.3a416.52,416.52,0,0,0-19.4-45.69c-57.4,25.68-112.09,59.77-169.93,84.66-65.2,28.06-132.46,50.1-200.94,68.6a1294.46,1294.46,0,0,1-216.19,39C264.47,554.79,188.11,568.73,128.43,554.19Z" transform="translate(0 0)"/><path class="cls-8" d="M945.15,613c-88.86,54.67-177.74,107.49-277.92,144.09-69.83,25.52-142.16,45-215.15,59-59.7,11.52-127.57,10.05-184.91,32.18a409.25,409.25,0,0,0,41.43,32.16c53.67,5.7,112.39-5.9,162.36-14.11,73.21-12,145-31.88,214.57-57.47,79.15-29.09,161.27-65.68,235.35-112.73A412.9,412.9,0,0,0,945.15,613Z" transform="translate(0 0)"/><g class="cls-9"><path class="cls-10" d="M673.31,605c-103.6,41.45-211.15,74.7-320.41,97.47-52.25,10.89-105.54,22-158.59,28.08-6.11.7-12.23,1.34-18.34,1.86A408.94,408.94,0,0,0,236.15,818c33.57-2.31,64.73-6.85,87.44-10.11C450.53,789.66,576.77,760.52,697,715.51c86-32.21,171-71.26,250.74-118.28a408.84,408.84,0,0,0-3.36-135C858.86,518.88,768.74,566.77,673.31,605Z" transform="translate(0 0)"/><path class="cls-11" d="M619.8,894.17C546.48,920,471.9,918.73,397.39,926.22A411.65,411.65,0,0,0,893.33,751.36c-43.26,14.88-81.84,46.64-121,69.19C723.41,848.77,673.22,875.34,619.8,894.17Z" transform="translate(0 0)"/><path class="cls-12" d="M211.44,291.91c23.06-3.3,45.86-7.9,67.49-11.83,67.62-12.3,135.05-26.85,200.87-46.79,62.32-18.88,134.35-44.77,198.4-81.08a411.32,411.32,0,0,0-118.82-23.5c-36.23,15.43-73.29,28.95-110.79,40.92-51,16.29-103,29.29-155.28,40.59A409.93,409.93,0,0,0,211.44,291.91Z" transform="translate(0 0)"/><path class="cls-13" d="M311.16,531.9c128.23-2.31,251-56.26,365.2-109.32C746.89,389.82,817.54,355,884.91,315.16A409.76,409.76,0,0,0,781.13,206.33C731.36,235,680.2,261.26,628,285.71c-101.18,47.38-206.63,96.44-318.71,109.13-51.54,5.83-102.73,4.55-154.23-.71a411.83,411.83,0,0,0-25.35,111.69C188.28,523.7,249.78,533,311.16,531.9Z" transform="translate(0 0)"/></g><path class="cls-14" d="M692.22,157.55c-9.53,5.1-19.12,10.08-28.86,14.69-52.48,24.81-106.15,47.81-161.13,66.49-98.71,33.54-201.33,48.44-302.79,69.92q-11.19,16.53-20.76,34c115.89,16.26,233.72-9.95,343.73-46.84C598,270.51,683.06,236.16,754,188.3A413.68,413.68,0,0,0,692.22,157.55Z" transform="translate(0 0)"/><path class="cls-15" d="M331.26,668.34c8.28-4.31,4.69-18.81-4.2-19.77-30.21-3.27-60.6-2.71-90.94-2.89-32.57-.21-64.09-5.68-96.26-8.56q4.9,20.1,11.93,40.06c.83,2.36,1.79,4.63,2.66,7C212.54,698.29,280.42,694.8,331.26,668.34Z" transform="translate(0 0)"/><path class="cls-16" d="M834.81,497.49A2400.93,2400.93,0,0,1,572.64,603.87c-5.61,1.91-2.47,9.59,3,8.43,97.88-20.84,192.71-52.49,282.66-96.65,28.82-14.14,58.45-28.82,87.56-44.75-1.76-10.28-3.88-20.56-6.46-30.81C905.26,460.42,870.84,480.28,834.81,497.49Z" transform="translate(0 0)"/><path class="cls-17" d="M453.59,341.22c115-32,228.72-72.9,333.39-130.65q-7.85-5.87-16-11.34c-104,51.24-208.86,99.64-319.34,136.63C448.19,337,450.09,342.19,453.59,341.22Z" transform="translate(0 0)"/><path class="cls-18" d="M733.33,808.36c-31.78,14-62.05,31.19-93.75,45.46a.4.4,0,0,0,.27.76c32.52-11.89,66-23.8,96.06-41.2C738.66,811.78,736.27,807.07,733.33,808.36Z" transform="translate(0 0)"/><path class="cls-19" d="M535.51,877.28c-63.74,6.66-126.89,18.53-190.63,25.29q8.3,4.45,16.81,8.52c60.13,5.71,118.87,2.24,176.94-18.83C546.65,889.34,544.35,876.35,535.51,877.28Z" transform="translate(0 0)"/><path class="cls-20" d="M391.49,644.89c-6,1.82-2.75,11,3.25,9.19a199.52,199.52,0,0,1,30-6.76c9.14-1.28,18.64-.91,27.64-2.71,4.22-.84,5.38-7.13.48-8C433.32,632.94,410.18,639.25,391.49,644.89Z" transform="translate(0 0)"/><path class="cls-21" d="M362.52,367.34c10.08-3.25,6-17.25-3.61-17.34-62.82-.58-124.22,11.41-185.76,21.25a.82.82,0,0,0-.1,1.61C236.56,384.44,299.75,387.62,362.52,367.34Z" transform="translate(0 0)"/><ellipse class="cls-22" cx="447.94" cy="481.43" rx="215.13" ry="236.79" transform="translate(-35.76 35.95) rotate(-4.42)"/></g></g></svg>