<svg xmlns="http://www.w3.org/2000/svg" xmlns:xlink="http://www.w3.org/1999/xlink" viewBox="0 0 1080.91 879.01"><defs><style>.cls-1{isolation:isolate;}.cls-2{fill:url(#radial-gradient);}.cls-3,.cls-6,.cls-9{mix-blend-mode:screen;}.cls-3{fill:url(#radial-gradient-2);}.cls-10,.cls-4,.cls-5,.cls-7{mix-blend-mode:multiply;}.cls-4{fill:url(#radial-gradient-3);}.cls-5{fill:url(#radial-gradient-4);}.cls-10,.cls-6,.cls-8{fill:#f3af1c;}.cls-11{fill:url(#radial-gradient-5);}.cls-12{fill:url(#radial-gradient-6);}.cls-13{fill:url(#radial-gradient-7);}.cls-14{fill:url(#radial-gradient-8);}.cls-15{fill:url(#radial-gradient-9);}.cls-16{fill:url(#radial-gradient-10);}.cls-17{fill:url(#radial-gradient-11);}.cls-18{fill:url(#radial-gradient-12);}.cls-19{fill:url(#radial-gradient-13);}</style><radialGradient id="radial-gradient" cx="629.71" cy="553.16" r="631.63" gradientTransform="translate(1174.68 -271.05) rotate(77.81)" gradientUnits="userSpaceOnUse"><stop offset="0.08" stop-color="#ffe132"/><stop offset="1" stop-color="#f68521"/></radialGradient><radialGradient id="radial-gradient-2" cx="651.62" cy="795.22" r="554.1" gradientTransform="translate(1174.68 -271.05) rotate(77.81)" gradientUnits="userSpaceOnUse"><stop offset="0.08" stop-color="#f0ad3b"/><stop offset="0.85" stop-color="#f0ad3b" stop-opacity="0"/></radialGradient><radialGradient id="radial-gradient-3" cx="631.76" cy="610.09" r="586.55" gradientTransform="matrix(0.84, 0.54, -0.54, 0.84, 405.95, -483.98)" gradientUnits="userSpaceOnUse"><stop offset="0" stop-color="#f68521"/><stop offset="0.92" stop-color="#ffe132"/></radialGradient><radialGradient id="radial-gradient-4" cx="666.75" cy="368.6" r="586.55" gradientTransform="translate(931.02 -253.89) rotate(77.8)" xlink:href="#radial-gradient-3"/><radialGradient id="radial-gradient-5" cx="667.48" cy="788.04" r="399.37" gradientTransform="matrix(0.84, 0.54, -0.54, 0.84, 405.95, -483.98)" xlink:href="#radial-gradient"/><radialGradient id="radial-gradient-6" cx="667.48" cy="788.04" r="399.37" gradientTransform="matrix(0.84, 0.54, -0.54, 0.84, 405.95, -483.98)" gradientUnits="userSpaceOnUse"><stop offset="0.08" stop-color="#f0ad3b"/><stop offset="1" stop-color="#f04f2c"/></radialGradient><radialGradient id="radial-gradient-7" cx="985.5" cy="573.7" r="80.58" xlink:href="#radial-gradient-6"/><radialGradient id="radial-gradient-8" cx="668.53" cy="799.08" r="395" xlink:href="#radial-gradient-6"/><radialGradient id="radial-gradient-9" cx="289.08" cy="897.87" r="81.73" xlink:href="#radial-gradient-6"/><radialGradient id="radial-gradient-10" cx="667.48" cy="788.04" r="398.54" gradientTransform="matrix(0.84, 0.54, -0.54, 0.84, 405.95, -483.98)" xlink:href="#radial-gradient"/><radialGradient id="radial-gradient-11" cx="318.79" cy="605.03" r="81.38" xlink:href="#radial-gradient-6"/><radialGradient id="radial-gradient-12" cx="1054.91" cy="851.54" r="79.09" xlink:href="#radial-gradient-6"/><radialGradient id="radial-gradient-13" cx="667.44" cy="811.52" r="392.17" xlink:href="#radial-gradient-6"/></defs><title>planet-4</title><g class="cls-1"><g id="Layer_1" data-name="Layer 1"><circle class="cls-2" cx="533.28" cy="550.43" r="326.43" transform="translate(-232.56 437.81) rotate(-45)"/><circle class="cls-3" cx="533.28" cy="550.43" r="386.75" transform="translate(-232.56 437.81) rotate(-45)"/><path class="cls-4" d="M839.12,436.27a305.45,305.45,0,0,1-42.69,104.85c-91.67,142.22-281.28,183.21-423.5,91.54A305.6,305.6,0,0,1,235.45,416.75c-65.21,144.8-16.55,319.4,121,408C508,922.47,710,878.8,807.66,727.27,865.67,637.26,873.81,529.45,839.12,436.27Z" transform="translate(0.45 -100.49)"/><path class="cls-5" d="M830.11,686.36a305.44,305.44,0,0,1-104.32,43.95C560.41,766.06,397.35,661,361.6,495.58a305.62,305.62,0,0,1,55.47-249.89C268.56,302,179.51,459.85,214.08,619.78,252.17,796,425.89,908,602.1,869.88,706.76,847.25,788.76,776.78,830.11,686.36Z" transform="translate(0.45 -100.49)"/><circle class="cls-6" cx="565.65" cy="394.13" r="44.63" transform="translate(-70.56 29.15) rotate(-12.31)"/><g class="cls-7"><path class="cls-8" d="M523.25,514.17c.17.54.33,1.08.49,1.61,2.65,8.72,9.87,16.63,19.71,16.63s17.64-5.67,21.06-14.78a22.55,22.55,0,0,0,.94-5.39c.85-8.32-5.05-16.49-12.21-19.85s-17.26-2.82-22.94,3.2l-1.54,1.63c-4.15,4.4-7.41,10.68-5.51,16.95Z" transform="translate(0.45 -100.49)"/></g><g class="cls-7"><path class="cls-8" d="M632.23,493.33l-1.8-.45c-6-1.49-13.21.29-16.54,6a15.13,15.13,0,0,0,1.38,17.54c.38.49.76,1,1.15,1.45,6.17,7.82,18.94,6,24-1.88s1.46-20.26-8.2-22.65Z" transform="translate(0.45 -100.49)"/></g><g class="cls-9"><path class="cls-8" d="M699.32,423.23C730,443,760.74,395.38,730,375.59s-61.42,27.85-30.71,47.64Z" transform="translate(0.45 -100.49)"/></g><g class="cls-7"><path class="cls-8" d="M721.93,531.66c10.1,6.51,20.24-9.18,10.12-15.7s-20.24,9.18-10.12,15.7Z" transform="translate(0.45 -100.49)"/></g><g class="cls-7"><path class="cls-8" d="M443.77,474.28c9.91,6.39,25,3.79,31.17-6.74s3.88-24.31-6.74-31.16c-9.91-6.39-25-3.79-31.16,6.73s-3.89,24.32,6.73,31.17Z" transform="translate(0.45 -100.49)"/></g><g class="cls-7"><path class="cls-8" d="M458.16,324.4c16.72,10.78,33.5-15.19,16.75-26s-33.5,15.19-16.75,26Z" transform="translate(0.45 -100.49)"/></g><g class="cls-7"><path class="cls-8" d="M395.67,369.75l-2.47-.28c-10.28-1.13-18.53,11.68-13.26,20.57l1.27,2.15c5.87,9.88,20.12,11.72,26.79,1.38s-.9-22.57-12.33-23.82Z" transform="translate(0.45 -100.49)"/></g><g class="cls-7"><path class="cls-8" d="M592.37,312.81a28.87,28.87,0,0,0,21.1,3.84c6.72-1.45,14.11-6.17,17.63-12.21,7.66-13.13,4.83-30.22-8.37-38.73a28.91,28.91,0,0,0-21.1-3.84c-6.72,1.45-14.11,6.17-17.63,12.21-7.65,13.13-4.83,30.22,8.37,38.73Z" transform="translate(0.45 -100.49)"/></g><g class="cls-9"><path class="cls-8" d="M591.72,622.07c12.89,8.31,25.82-11.71,12.91-20s-25.82,11.71-12.91,20Z" transform="translate(0.45 -100.49)"/></g><g class="cls-9"><path class="cls-8" d="M648.66,602.82c11.84,7.63,23.73-10.76,11.86-18.41s-23.72,10.76-11.86,18.41Z" transform="translate(0.45 -100.49)"/></g><g class="cls-7"><path class="cls-8" d="M647.46,445.24c12.54,8.08,25.12-11.39,12.56-19.49s-25.12,11.39-12.56,19.49Z" transform="translate(0.45 -100.49)"/></g><g class="cls-7"><path class="cls-8" d="M617.63,369.29c10.8,7,21.63-9.81,10.81-16.78s-21.63,9.81-10.81,16.78Z" transform="translate(0.45 -100.49)"/></g><g class="cls-9"><path class="cls-8" d="M284.33,567.53c10.2,6.57,25.74,3.9,32.06-6.93s4-25-6.93-32.05c-10.2-6.57-25.74-3.9-32.06,6.93s-4,25,6.93,32Z" transform="translate(0.45 -100.49)"/></g><g class="cls-7"><path class="cls-8" d="M360,715.86c3.48,2.24,7-3.17,3.49-5.42s-7,3.17-3.49,5.42Z" transform="translate(0.45 -100.49)"/></g><g class="cls-7"><path class="cls-8" d="M423.81,712.52c12.89,8.31,25.82-11.71,12.91-20s-25.82,11.71-12.91,20Z" transform="translate(0.45 -100.49)"/></g><g class="cls-9"><path class="cls-8" d="M429.2,799.81c23.69,15.27,47.46-21.52,23.73-36.81s-47.46,21.52-23.73,36.81Z" transform="translate(0.45 -100.49)"/></g><g class="cls-7"><path class="cls-8" d="M330.84,702.43c.08-.55.17-1.1.25-1.65,1.37-8.8-10.57-16.49-18-11.62l-1.4.92c-4.07,2.66-7,6.08-7.22,11.2a13.21,13.21,0,0,0,19.17,12.35c4.57-2.31,6.48-6.39,7.22-11.2Z" transform="translate(0.45 -100.49)"/></g><g class="cls-7"><path class="cls-8" d="M650.06,722.89c7.08,4.56,17.87,2.71,22.26-4.82s2.77-17.36-4.82-22.26c-7.08-4.56-17.87-2.71-22.26,4.82s-2.77,17.37,4.82,22.26Z" transform="translate(0.45 -100.49)"/></g><g class="cls-7"><path class="cls-8" d="M699.9,746.54a.34.34,0,0,0,.37-.58.34.34,0,0,0-.37.58Z" transform="translate(0.45 -100.49)"/></g><g class="cls-9"><path class="cls-8" d="M759.4,585.13c11.84,7.63,23.73-10.76,11.86-18.41s-23.73,10.76-11.86,18.41Z" transform="translate(0.45 -100.49)"/></g><g class="cls-9"><path class="cls-8" d="M724.74,761.13c17.77,11.45,35.6-16.14,17.8-27.61s-35.59,16.14-17.8,27.61Z" transform="translate(0.45 -100.49)"/></g><g class="cls-9"><path class="cls-10" d="M656,588.72A136.09,136.09,0,0,0,747.63,796.6,326.42,326.42,0,0,0,859.6,560,135.11,135.11,0,0,0,656,588.72Z" transform="translate(0.45 -100.49)"/><path class="cls-10" d="M835.52,427.26A325.08,325.08,0,0,0,779.37,336a54,54,0,0,0,56.15,91.28Z" transform="translate(0.45 -100.49)"/><path class="cls-10" d="M356.44,824.8a328.07,328.07,0,0,0,41,22.42A126,126,0,1,0,227.36,664.35,324.89,324.89,0,0,0,356.44,824.8Z" transform="translate(0.45 -100.49)"/><path class="cls-10" d="M235,417.64a323.8,323.8,0,0,0-25.34,89.62A50,50,0,0,0,235,417.64Z" transform="translate(0.45 -100.49)"/><path class="cls-10" d="M574.87,836.41a62,62,0,0,0-93.56,36.29,327,327,0,0,0,119.09-2.86A61.85,61.85,0,0,0,574.87,836.41Z" transform="translate(0.45 -100.49)"/><path class="cls-10" d="M548.48,781.32a50,50,0,1,0-14.94-69.15A50,50,0,0,0,548.48,781.32Z" transform="translate(0.45 -100.49)"/></g><path class="cls-11" d="M1080.07,605.78c5.42-44.47-46.6-84.68-159.06-122.91-25.18-8.56-52.79-16.71-82.12-24.45a165.69,165.69,0,0,1,7.24,25.69,246.34,246.34,0,0,1,7.5,33.75c13.3,3.81,26.24,7.69,38.5,11.68,113.81,37.05,132.11,64.69,134.59,69.74-3.61,4.31-28,26.74-147.4,35.4-96.05,7-220.07,2.14-349.19-13.59s-250.68-40.81-342.26-70.63C74.08,513.41,55.75,485.78,53.28,480.72c3.62-4.32,28-26.75,147.4-35.4,13-.95,26.72-1.62,40.76-2.12,5.12-19.27,12.87-37.54,24.09-54.08-28.89.52-56.32,1.8-81.68,4C65.51,403.21,5.35,429.75-.07,474.22c-3.15,25.9,13.17,50.34,49.56,73.8Q88.64,573.25,159,597.13c96.22,32.71,225.73,60,364.68,77s271.24,21.47,372.49,12.81C1014.49,676.79,1074.65,650.25,1080.07,605.78Z" transform="translate(0.45 -100.49)"/><g class="cls-7"><path class="cls-12" d="M1080.07,605.78c5.42-44.47-46.6-84.68-159.06-122.91-25.18-8.56-52.79-16.71-82.12-24.45a165.69,165.69,0,0,1,7.24,25.69,246.34,246.34,0,0,1,7.5,33.75c13.3,3.81,26.24,7.69,38.5,11.68,113.81,37.05,132.11,64.69,134.59,69.74-3.61,4.31-28,26.74-147.4,35.4-96.05,7-220.07,2.14-349.19-13.59s-250.68-40.81-342.26-70.63C74.08,513.41,55.75,485.78,53.28,480.72c3.62-4.32,28-26.75,147.4-35.4,13-.95,26.72-1.62,40.76-2.12,5.12-19.27,12.87-37.54,24.09-54.08-28.89.52-56.32,1.8-81.68,4C65.51,403.21,5.35,429.75-.07,474.22c-3.15,25.9,13.17,50.34,49.56,73.8Q88.64,573.25,159,597.13c96.22,32.71,225.73,60,364.68,77s271.24,21.47,372.49,12.81C1014.49,676.79,1074.65,650.25,1080.07,605.78Z" transform="translate(0.45 -100.49)"/></g><path class="cls-13" d="M853.63,517.86c13.3,3.81,26.24,7.69,38.5,11.68,71.42,23.25,105.22,42.79,121.11,55.37,9.48-4.56,13.29-8.27,14.55-9.78-2.47-5-20.78-32.69-134.58-69.74-12.26-4-25.21-7.87-38.5-11.67a250.58,250.58,0,0,0-7.3-33c-2.85-.77-5.64-1.55-8.52-2.32a165.38,165.38,0,0,1,7.24,25.69A246.34,246.34,0,0,1,853.63,517.86Z" transform="translate(0.45 -100.49)"/><path class="cls-14" d="M1080.07,605.78a50.6,50.6,0,0,0-.6-16c-11.55,39.57-71.35,63.47-182.24,73C796,671.42,663.69,666.87,524.74,650s-268.46-44.26-364.67-77q-70.45-24-109.5-49.11c-28.84-18.58-45-37.79-49-57.85a52.06,52.06,0,0,0-1.68,8.2c-3.15,25.9,13.17,50.34,49.56,73.8Q88.64,573.25,159,597.13c96.22,32.71,225.73,60,364.68,77s271.24,21.47,372.49,12.81C1014.49,676.79,1074.65,650.25,1080.07,605.78Z" transform="translate(0.45 -100.49)"/><path class="cls-15" d="M242.51,419.05c-14,.5-27.71,1.18-40.76,2.12C82.39,429.83,58,452.25,54.36,456.57c.92,1.88,4,6.9,13.47,14.37,17.69-8.52,55.13-20,132.85-25.62,13-.95,26.72-1.62,40.76-2.12,5.12-19.27,12.87-37.54,24.09-54.08-4.22.08-8.34.21-12.49.31A190.51,190.51,0,0,0,242.51,419.05Z" transform="translate(0.45 -100.49)"/><path class="cls-16" d="M875.37,968.4c35.28-27.62,26.93-92.83-25.56-199.38-11.75-23.86-25.51-49.15-40.78-75.36A165.92,165.92,0,0,1,796,717a248.28,248.28,0,0,1-18.56,29.17c6.7,12.09,13.12,24,19,35.48,54.28,106.67,47.68,139.16,45.86,144.48-5.61.49-38.74-.91-129.26-79.2-72.85-63-157.13-154.09-237.31-256.52S327.28,384.25,283.61,298.41c-54.26-106.67-47.68-139.16-45.85-144.49,5.61-.5,38.73.91,129.25,79.19,9.9,8.56,20.05,17.76,30.33,27.32,17.24-10,35.64-17.43,55.26-21.2-20.79-20.06-41.09-38.55-60.55-54.95C301.21,107.76,239.91,84,204.63,111.6c-20.55,16.08-26.29,44.91-17.14,87.23q9.84,45.53,42.7,112.15c44.91,91.17,117.16,202.07,203.44,312.29S610.24,830.25,688,895.72C778.79,972.25,840.1,996,875.37,968.4Z" transform="translate(0.45 -100.49)"/><g class="cls-9"><path class="cls-17" d="M381.18,215.31c-90.52-78.28-123.64-79.69-129.25-79.2-.69,2-2.05,7.84-.6,20,17.46,5.27,52.64,22.49,115.68,77,9.9,8.56,20.05,17.76,30.33,27.32,17.24-10,35.64-17.43,55.26-21.2-3.74-3.61-7.45-7.11-11.16-10.62a189,189,0,0,0-29.93,14C401.23,233.06,391.08,223.86,381.18,215.31Z" transform="translate(0.45 -100.49)"/><path class="cls-18" d="M777.43,746.12c6.7,12.09,13.12,24,19,35.48,33.89,66.6,44,104.28,46.45,124.49,7.61,2.3,11.87,2.33,13.58,2.18,1.82-5.32,8.42-37.8-45.86-144.48-5.84-11.49-12.26-23.38-19-35.48a246.63,246.63,0,0,0,18.56-29.17c.37-.55.68-1.13,1-1.69-.73-1.27-1.43-2.51-2.17-3.79A165.92,165.92,0,0,1,796,717,248.28,248.28,0,0,1,777.43,746.12Z" transform="translate(0.45 -100.49)"/><path class="cls-19" d="M889.54,950.6c-35.27,27.61-96.58,3.84-187.41-72.68-77.72-65.47-168-162.23-254.33-272.45S289.27,384.34,244.36,293.18c-21.91-44.5-36.14-81.8-42.7-112.16-6.38-29.51-5.5-52.45,2.58-69.09-20.21,16.15-25.84,44.85-16.75,86.9q9.84,45.53,42.7,112.15c44.91,91.17,117.16,202.07,203.44,312.29S610.24,830.25,688,895.72C778.79,972.25,840.1,996,875.37,968.4a50.8,50.8,0,0,0,14.43-18C889.71,950.43,889.64,950.52,889.54,950.6Z" transform="translate(0.45 -100.49)"/></g></g></g></svg>