<svg xmlns="http://www.w3.org/2000/svg" xmlns:xlink="http://www.w3.org/1999/xlink" viewBox="0 0 1078.8 850.53"><defs><style>.cls-1{isolation:isolate;}.cls-2{fill:url(#radial-gradient);}.cls-3,.cls-30{mix-blend-mode:screen;}.cls-3{fill:url(#radial-gradient-2);}.cls-4{fill:url(#radial-gradient-3);}.cls-10,.cls-11,.cls-12,.cls-13,.cls-14,.cls-15,.cls-17,.cls-19,.cls-21,.cls-23,.cls-25,.cls-27,.cls-29,.cls-32,.cls-5,.cls-6,.cls-7,.cls-8,.cls-9{mix-blend-mode:multiply;}.cls-5{fill:url(#radial-gradient-4);}.cls-6{fill:url(#radial-gradient-5);}.cls-7{fill:url(#radial-gradient-6);}.cls-10,.cls-11,.cls-12,.cls-13,.cls-14,.cls-15,.cls-17,.cls-19,.cls-21,.cls-23,.cls-25,.cls-27,.cls-29,.cls-9{opacity:0.5;}.cls-9{fill:url(#radial-gradient-7);}.cls-10{fill:url(#radial-gradient-8);}.cls-11{fill:url(#radial-gradient-9);}.cls-12{fill:url(#radial-gradient-10);}.cls-13{fill:url(#radial-gradient-11);}.cls-14{fill:url(#radial-gradient-12);}.cls-15{fill:url(#radial-gradient-13);}.cls-16{fill:url(#radial-gradient-14);}.cls-17{fill:url(#radial-gradient-15);}.cls-18{fill:url(#radial-gradient-16);}.cls-19{fill:url(#radial-gradient-17);}.cls-20{fill:url(#radial-gradient-18);}.cls-21{fill:url(#radial-gradient-19);}.cls-22{fill:url(#radial-gradient-20);}.cls-23{fill:url(#radial-gradient-21);}.cls-24{fill:url(#radial-gradient-22);}.cls-25{fill:url(#radial-gradient-23);}.cls-26{fill:url(#radial-gradient-24);}.cls-27{fill:url(#radial-gradient-25);}.cls-28{fill:url(#radial-gradient-26);}.cls-29{fill:url(#radial-gradient-27);}.cls-30{fill:url(#radial-gradient-28);}.cls-31{fill:url(#radial-gradient-29);}.cls-32{fill:url(#radial-gradient-30);}.cls-33{fill:url(#radial-gradient-31);}</style><radialGradient id="radial-gradient" cx="554.92" cy="689.34" r="437.04" gradientTransform="translate(462.66 -444.95) rotate(29.73)" gradientUnits="userSpaceOnUse"><stop offset="0.08" stop-color="#ffe132"/><stop offset="0.53" stop-color="#ed227e" stop-opacity="0.47"/><stop offset="1" stop-color="#f68521" stop-opacity="0"/></radialGradient><radialGradient id="radial-gradient-2" cx="549.73" cy="682.19" r="272.38" xlink:href="#radial-gradient"/><radialGradient id="radial-gradient-3" cx="608.55" cy="102.88" r="1227.22" gradientTransform="translate(462.66 -444.95) rotate(29.73)" gradientUnits="userSpaceOnUse"><stop offset="0" stop-color="#cce2ef"/><stop offset="0.34" stop-color="#6eccde"/><stop offset="0.94" stop-color="#7f3d97"/></radialGradient><radialGradient id="radial-gradient-4" cx="608.55" cy="451.43" r="845.54" xlink:href="#radial-gradient-3"/><radialGradient id="radial-gradient-5" cx="610.79" cy="464.08" r="832.18" xlink:href="#radial-gradient-3"/><radialGradient id="radial-gradient-6" cx="594.97" cy="263.27" r="610.72" xlink:href="#radial-gradient-3"/><radialGradient id="radial-gradient-7" cx="117.82" cy="621.09" r="119.02" xlink:href="#radial-gradient-3"/><radialGradient id="radial-gradient-8" cx="263.27" cy="652.75" r="119.02" xlink:href="#radial-gradient-3"/><radialGradient id="radial-gradient-9" cx="408.8" cy="668.8" r="119.02" xlink:href="#radial-gradient-3"/><radialGradient id="radial-gradient-10" cx="554.36" cy="675.04" r="119.02" xlink:href="#radial-gradient-3"/><radialGradient id="radial-gradient-11" cx="699.98" cy="670.09" r="119.02" xlink:href="#radial-gradient-3"/><radialGradient id="radial-gradient-12" cx="845.65" cy="653.93" r="119.02" xlink:href="#radial-gradient-3"/><radialGradient id="radial-gradient-13" cx="991.39" cy="620.98" r="119.02" xlink:href="#radial-gradient-3"/><radialGradient id="radial-gradient-14" cx="110.05" cy="620.15" r="119.02" gradientTransform="translate(466.36 -446.38) rotate(29.98)" gradientUnits="userSpaceOnUse"><stop offset="0.06" stop-color="#f37f9c"/><stop offset="0.53" stop-color="#ee4599"/><stop offset="0.99" stop-color="#d11c5c"/></radialGradient><radialGradient id="radial-gradient-15" cx="111.6" cy="624.71" r="111.52" xlink:href="#radial-gradient-14"/><radialGradient id="radial-gradient-16" cx="255.65" cy="651.17" r="119.02" xlink:href="#radial-gradient-14"/><radialGradient id="radial-gradient-17" cx="257.2" cy="655.73" r="111.52" xlink:href="#radial-gradient-14"/><radialGradient id="radial-gradient-18" cx="401.24" cy="666.58" r="119.02" xlink:href="#radial-gradient-14"/><radialGradient id="radial-gradient-19" cx="402.8" cy="671.14" r="111.52" xlink:href="#radial-gradient-14"/><radialGradient id="radial-gradient-20" cx="546.84" cy="672.18" r="119.02" xlink:href="#radial-gradient-14"/><radialGradient id="radial-gradient-21" cx="548.39" cy="676.74" r="111.52" xlink:href="#radial-gradient-14"/><radialGradient id="radial-gradient-22" cx="692.43" cy="666.59" r="119.02" xlink:href="#radial-gradient-14"/><radialGradient id="radial-gradient-23" cx="693.99" cy="671.15" r="111.52" xlink:href="#radial-gradient-14"/><radialGradient id="radial-gradient-24" cx="838.03" cy="649.8" r="119.02" xlink:href="#radial-gradient-14"/><radialGradient id="radial-gradient-25" cx="839.59" cy="654.35" r="111.52" xlink:href="#radial-gradient-14"/><radialGradient id="radial-gradient-26" cx="983.63" cy="616.2" r="119.02" xlink:href="#radial-gradient-14"/><radialGradient id="radial-gradient-27" cx="985.18" cy="620.76" r="111.52" xlink:href="#radial-gradient-14"/><radialGradient id="radial-gradient-28" cx="491.63" cy="422.03" r="190.65" xlink:href="#radial-gradient-3"/><radialGradient id="radial-gradient-29" cx="236.94" cy="558.42" r="692.2" xlink:href="#radial-gradient-3"/><radialGradient id="radial-gradient-30" cx="594.97" cy="340.84" r="512.9" xlink:href="#radial-gradient-3"/><radialGradient id="radial-gradient-31" cx="933.77" cy="553.02" r="487.15" xlink:href="#radial-gradient-3"/></defs><title>ufo-pack</title><g class="cls-1"><g id="Layer_1" data-name="Layer 1"><path class="cls-2" d="M234.84,195.87C215.5,207.66.6,382.79.6,382.79s65.67,261,379.2,457S952.65,943.53,952.65,943.53l65.46-315.8Z" transform="translate(-0.6 -114.74)"/><path class="cls-3" d="M372.47,274.86c-12.05,7.35-146,116.5-146,116.5S267.41,554,462.82,676.2s357,64.64,357,64.64L860.64,544Z" transform="translate(-0.6 -114.74)"/><path class="cls-4" d="M880.58,405a63.15,63.15,0,0,0,4.59-6.52c32.36-56.67-27.14-151.58-132.9-212S534.52,123,502.15,179.71a65.6,65.6,0,0,0-3.28,7.26C346.1,119.84,228.69,95,207.68,131.75,178.27,183.25,348.83,336,588.64,473s458.05,206.23,487.46,154.73C1097.11,590.92,1016,502.44,880.58,405Z" transform="translate(-0.6 -114.74)"/><path class="cls-5" d="M1067.56,579.78c-84.09-2.85-253.48-67.73-435.35-171.6C445.54,301.58,300.88,185.41,259.78,114.86c-26.82-.92-45,4.45-52.1,16.89C178.27,183.25,348.83,336,588.64,473s458.05,206.23,487.46,154.73C1082.62,616.29,1079.29,599.88,1067.56,579.78Z" transform="translate(-0.6 -114.74)"/><path class="cls-6" d="M1070.7,585.54a27.3,27.3,0,0,1-3.21,15.26C1038.07,652.3,819.83,583,580,446.07,388.27,336.56,240.92,217,204.54,147.12,208,209.25,369.29,347.7,588.64,473c239.81,136.95,458.05,206.23,487.46,154.73C1082,617.41,1079.78,603,1070.7,585.54Z" transform="translate(-0.6 -114.74)"/><path class="cls-7" d="M497.33,193.53s20.19,74,189.56,166c101.59,55.25,171.59,66.66,212.39,59.07-6.12-4.54-12.33-9.1-18.7-13.68a63.15,63.15,0,0,0,4.59-6.52C907.71,359,885.6,301,834.41,249c-17.61,22.46-50.85,34.45-113.68,2.76-91.55-46.15-127.91-84.12-139-112.18-36.74,2.4-65.59,15.68-79.57,40.15a65.6,65.6,0,0,0-3.28,7.26l-3-1.29A51.06,51.06,0,0,0,497.33,193.53Z" transform="translate(-0.6 -114.74)"/><g class="cls-8"><path class="cls-9" d="M286.65,192.05c.19-.63.28-1.26.43-1.91a27.26,27.26,0,0,0,.64-4.29c0-.71.06-1.41,0-2.12a27.94,27.94,0,0,0-.4-4.29c-.11-.61-.17-1.23-.31-1.84a28.19,28.19,0,0,0-2-5.77h0a27.74,27.74,0,0,0-52.44,7.79h0a25.7,25.7,0,0,0-.29,3.38c0,.44,0,.88,0,1.32a27.26,27.26,0,0,0,.2,3.13c.06.53.17,1.05.26,1.58a24.4,24.4,0,0,0,2.1,6.84c.28.59.63,1.14.95,1.71a27.16,27.16,0,0,0,1.57,2.57c.37.51.76,1,1.16,1.5a27.21,27.21,0,0,0,2.26,2.43c.39.38.77.78,1.19,1.14a28.66,28.66,0,0,0,4.11,3h0a27.83,27.83,0,0,0,38-10.2h0A27.59,27.59,0,0,0,286.65,192.05Z" transform="translate(-0.6 -114.74)"/><path class="cls-10" d="M397.69,289.77a27.43,27.43,0,0,0,.64-4.29c.05-.72.07-1.42.06-2.13a27.94,27.94,0,0,0-.41-4.28c-.1-.62-.16-1.23-.31-1.84a28,28,0,0,0-2-5.77h0a27.75,27.75,0,0,0-52.45,7.79h0a27.2,27.2,0,0,0-.29,3.37c0,.44,0,.88,0,1.33a29.53,29.53,0,0,0,.2,3.12c.07.54.17,1.06.27,1.6.18,1,.34,1.93.61,2.87a29.46,29.46,0,0,0,1.48,4c.28.59.63,1.14.95,1.71a27.83,27.83,0,0,0,1.57,2.56c.37.52.76,1,1.16,1.5a27.43,27.43,0,0,0,2.26,2.44c.4.38.77.77,1.19,1.13a27.61,27.61,0,0,0,44.68-13.16C397.45,291,397.55,290.41,397.69,289.77Z" transform="translate(-0.6 -114.74)"/><path class="cls-11" d="M516.11,375.87a27.43,27.43,0,0,0,.64-4.29c0-.72.06-1.42,0-2.13a27.92,27.92,0,0,0-.4-4.28c-.11-.62-.17-1.23-.31-1.84a28.28,28.28,0,0,0-2-5.78h0a27.76,27.76,0,0,0-52.45,7.79h0a29.28,29.28,0,0,0-.29,3.37c0,.44,0,.88,0,1.32a27.11,27.11,0,0,0,.2,3.13c.06.54.17,1.06.26,1.59a28.58,28.58,0,0,0,.62,2.89,26.85,26.85,0,0,0,1.48,4c.27.59.63,1.14.95,1.71a25.8,25.8,0,0,0,1.57,2.56c.37.52.76,1,1.16,1.5a26,26,0,0,0,2.26,2.44c.39.38.77.77,1.19,1.13a27.68,27.68,0,0,0,4.13,3h0a27.64,27.64,0,0,0,40.54-16.14C515.87,377.15,516,376.51,516.11,375.87Z" transform="translate(-0.6 -114.74)"/><path class="cls-12" d="M639.42,453.48a27.43,27.43,0,0,0,.64-4.29c.05-.72.07-1.42.06-2.13a27.94,27.94,0,0,0-.41-4.28c-.1-.62-.16-1.23-.31-1.84a28.56,28.56,0,0,0-2-5.77h0A27.74,27.74,0,0,0,585,443h0a27.2,27.2,0,0,0-.29,3.37c0,.44,0,.89,0,1.33a27.08,27.08,0,0,0,.2,3.12c.06.54.17,1.07.27,1.6a27.6,27.6,0,0,0,.61,2.87,29,29,0,0,0,1.48,4c.28.59.63,1.14,1,1.71a27.83,27.83,0,0,0,1.57,2.56c.37.52.76,1,1.17,1.51a27.09,27.09,0,0,0,2.25,2.43c.4.38.77.77,1.19,1.13a27.27,27.27,0,0,0,4.14,3h0c.16.09.33.13.5.22a27.56,27.56,0,0,0,40-16.36C639.18,454.76,639.28,454.12,639.42,453.48Z" transform="translate(-0.6 -114.74)"/><path class="cls-13" d="M768.33,521.39a27.43,27.43,0,0,0,.64-4.29c0-.72.07-1.42.06-2.13a27.82,27.82,0,0,0-.41-4.28c-.1-.62-.16-1.23-.31-1.84a28,28,0,0,0-2-5.77h0a27.75,27.75,0,0,0-52.44,7.78h0a27.2,27.2,0,0,0-.29,3.37c0,.44,0,.88,0,1.33a27.08,27.08,0,0,0,.2,3.12c.06.54.17,1.07.27,1.6.18,1,.34,1.93.61,2.87a29.46,29.46,0,0,0,1.48,4c.28.59.64,1.14.95,1.71a27.83,27.83,0,0,0,1.57,2.56c.37.52.76,1,1.17,1.51a28.64,28.64,0,0,0,2.25,2.44c.4.37.77.76,1.19,1.12a27.27,27.27,0,0,0,4.14,3A27.61,27.61,0,0,0,767.9,523.3C768.09,522.66,768.19,522,768.33,521.39Z" transform="translate(-0.6 -114.74)"/><path class="cls-14" d="M902.84,579.6a27.43,27.43,0,0,0,.64-4.29c0-.72.07-1.42.06-2.13a27.7,27.7,0,0,0-.41-4.28c-.11-.62-.17-1.23-.31-1.84a28.28,28.28,0,0,0-2-5.78h0a27.75,27.75,0,0,0-52.44,7.79h0a25.7,25.7,0,0,0-.29,3.38c0,.44,0,.88,0,1.32a27.11,27.11,0,0,0,.2,3.13c.06.54.17,1.06.27,1.6a27.6,27.6,0,0,0,.61,2.87,28.16,28.16,0,0,0,1.48,4c.28.59.63,1.13.95,1.71a28.34,28.34,0,0,0,1.57,2.56c.37.52.76,1,1.17,1.5a25.8,25.8,0,0,0,2.25,2.44c.39.38.77.77,1.19,1.13a28.66,28.66,0,0,0,4.11,3h0a27.57,27.57,0,0,0,4.65,2.1c.58.2,1.16.34,1.74.5a27.44,27.44,0,0,0,34.15-18.73C902.6,580.87,902.7,580.24,902.84,579.6Z" transform="translate(-0.6 -114.74)"/><path class="cls-15" d="M1045.31,625.16c.19-.63.29-1.27.43-1.91a27.46,27.46,0,0,0,.65-4.29c0-.71.06-1.41,0-2.13a27.94,27.94,0,0,0-.41-4.28c-.1-.62-.16-1.23-.31-1.84a27.38,27.38,0,0,0-2-5.77h0a27.76,27.76,0,0,0-52.45,7.79h0a27.2,27.2,0,0,0-.29,3.37c0,.44,0,.89,0,1.33a29.52,29.52,0,0,0,.19,3.12c.07.54.18,1.07.27,1.6A28.39,28.39,0,0,0,992,625a28,28,0,0,0,1.47,4c.28.59.64,1.14,1,1.71a27.93,27.93,0,0,0,1.58,2.56c.36.52.75,1,1.16,1.51a27.21,27.21,0,0,0,2.26,2.44c.39.38.76.76,1.18,1.12a28.3,28.3,0,0,0,4.14,3,27.83,27.83,0,0,0,21.14,2.78,28.14,28.14,0,0,0,9.6-4.69,27.09,27.09,0,0,0,9.8-14.23Z" transform="translate(-0.6 -114.74)"/></g><path class="cls-16" d="M278.84,191a27.85,27.85,0,1,1-10.2-38A27.85,27.85,0,0,1,278.84,191Z" transform="translate(-0.6 -114.74)"/><path class="cls-17" d="M279.74,164.8a27.51,27.51,0,0,1-3.29,9.47,27.86,27.86,0,0,1-49.16-1.68,27.82,27.82,0,1,0,52.45-7.79Z" transform="translate(-0.6 -114.74)"/><path class="cls-18" d="M389.45,290.58a27.85,27.85,0,1,1-10.2-38A27.86,27.86,0,0,1,389.45,290.58Z" transform="translate(-0.6 -114.74)"/><path class="cls-19" d="M390.35,264.42a27.56,27.56,0,0,1-3.29,9.48,27.85,27.85,0,0,1-49.15-1.69,27.82,27.82,0,1,0,52.44-7.79Z" transform="translate(-0.6 -114.74)"/><path class="cls-20" d="M507.87,376.68a27.85,27.85,0,1,1-10.21-38.05A27.87,27.87,0,0,1,507.87,376.68Z" transform="translate(-0.6 -114.74)"/><path class="cls-21" d="M508.77,350.52a27.81,27.81,0,0,1-52.45,7.79,27.82,27.82,0,1,0,52.45-7.79Z" transform="translate(-0.6 -114.74)"/><path class="cls-22" d="M631.18,454.29A27.85,27.85,0,1,1,621,416.24,27.86,27.86,0,0,1,631.18,454.29Z" transform="translate(-0.6 -114.74)"/><path class="cls-23" d="M632.08,428.13a27.56,27.56,0,0,1-3.29,9.48,27.85,27.85,0,0,1-49.15-1.68,27.82,27.82,0,1,0,52.44-7.8Z" transform="translate(-0.6 -114.74)"/><path class="cls-24" d="M760.1,522.2a27.86,27.86,0,1,1-10.21-38.05A27.87,27.87,0,0,1,760.1,522.2Z" transform="translate(-0.6 -114.74)"/><path class="cls-25" d="M761,496a27.56,27.56,0,0,1-3.29,9.48,27.85,27.85,0,0,1-49.15-1.69A27.82,27.82,0,1,0,761,496Z" transform="translate(-0.6 -114.74)"/><path class="cls-26" d="M894.6,580.41a27.85,27.85,0,1,1-10.2-38A27.85,27.85,0,0,1,894.6,580.41Z" transform="translate(-0.6 -114.74)"/><path class="cls-27" d="M895.5,554.25a27.56,27.56,0,0,1-3.29,9.48A27.87,27.87,0,0,1,843.05,562a27.82,27.82,0,1,0,52.45-7.79Z" transform="translate(-0.6 -114.74)"/><path class="cls-28" d="M1037.51,624.06a27.86,27.86,0,1,1-10.21-38A27.85,27.85,0,0,1,1037.51,624.06Z" transform="translate(-0.6 -114.74)"/><path class="cls-29" d="M1038.41,597.91A27.81,27.81,0,0,1,986,605.7a27.82,27.82,0,1,0,52.45-7.79Z" transform="translate(-0.6 -114.74)"/><path class="cls-30" d="M758.82,235.69c-6.6,11.56-36.22,7.07-66.16-10s-48.84-40.32-42.24-51.88,36.22-7.07,66.15,10S765.42,224.14,758.82,235.69Z" transform="translate(-0.6 -114.74)"/><path class="cls-31" d="M418.48,168.71c-3.22-1.84-126.49-55.16-113.3-23.43s173,175.64,393.44,283c0,0-340.23-234.16-283.67-255.94" transform="translate(-0.6 -114.74)"/><path class="cls-32" d="M885.17,398.45c11.73-20.55,11.27-46.13,1-73.26-36.35,51.57-193.77,6-297.36-74.57-66-51.28-70-80.27-60.25-96.48-11.22,6.44-20.31,14.87-26.42,25.57a65.6,65.6,0,0,0-3.28,7.26l-3-1.29a51.06,51.06,0,0,0,1.42,7.85s20.19,74,189.56,166c101.59,55.25,171.59,66.66,212.39,59.07-6.12-4.54-12.33-9.1-18.7-13.68A63.15,63.15,0,0,0,885.17,398.45Z" transform="translate(-0.6 -114.74)"/><path class="cls-33" d="M900.73,438.57s98.68,71.1,132.39,113.5q1.62,2.05,3.05,4c30.29,41.75-162.88-38.89-304.71-114.65,0,0,134.11,43.41,158.18,37.95S900.73,438.57,900.73,438.57Z" transform="translate(-0.6 -114.74)"/></g></g></svg>